<?xml version="1.0" encoding="UTF-8" standalone="no"?>
<svg
   version="1.0"
   width="400.000000pt"
   height="400.000000pt"
   viewBox="0 0 400.000000 400.000000"
   preserveAspectRatio="xMidYMid meet"
   id="svg23"
   sodipodi:docname="bishop.svg"
   inkscape:version="1.2.2 (732a01da63, 2022-12-09)"
   xmlns:inkscape="http://www.inkscape.org/namespaces/inkscape"
   xmlns:sodipodi="http://sodipodi.sourceforge.net/DTD/sodipodi-0.dtd"
   xmlns="http://www.w3.org/2000/svg"
   xmlns:svg="http://www.w3.org/2000/svg">
  <defs
     id="defs27" />
  <sodipodi:namedview
     id="namedview25"
     pagecolor="#505050"
     bordercolor="#ffffff"
     borderopacity="1"
     inkscape:showpageshadow="0"
     inkscape:pageopacity="0"
     inkscape:pagecheckerboard="1"
     inkscape:deskcolor="#505050"
     inkscape:document-units="pt"
     showgrid="false"
     inkscape:zoom="1.4212846"
     inkscape:cx="233.5915"
     inkscape:cy="256.45814"
     inkscape:window-width="2160"
     inkscape:window-height="1346"
     inkscape:window-x="-11"
     inkscape:window-y="-11"
     inkscape:window-maximized="1"
     inkscape:current-layer="svg23" />
  <g
     transform="matrix(0.10889023,0,0,-0.10889023,7.4596096,426.90788)"
     fill="#ffffff"
     stroke="none"
     id="g21">
    <path
       d="m 1875,3720 c -22,-11 -61,-39 -86,-62 -44,-41 -46,-46 -52,-110 -8,-83 -31,-129 -97,-193 -29,-27 -72,-79 -98,-115 -25,-36 -65,-86 -88,-111 -63,-69 -91,-120 -131,-237 -33,-96 -37,-118 -37,-212 -1,-123 13,-162 88,-249 71,-81 83,-111 91,-231 4,-58 13,-143 21,-189 11,-63 12,-105 4,-175 -5,-50 -14,-185 -20,-301 -14,-259 -24,-345 -50,-395 -28,-55 -121,-152 -226,-236 -156,-124 -225,-255 -179,-341 23,-43 104,-83 240,-120 96,-26 110,-27 350,-28 221,0 263,3 365,23 63,13 142,32 176,43 33,11 102,26 153,33 107,16 131,32 131,85 0,55 -34,166 -63,209 -33,46 -148,150 -251,226 -110,82 -119,105 -120,296 0,412 6,784 15,860 11,95 34,153 72,188 14,13 71,41 128,63 131,49 164,72 194,134 46,95 78,321 56,403 -17,62 -58,104 -103,105 -47,1 -219,-83 -302,-147 -84,-66 -96,-62 -48,15 48,75 89,115 170,165 176,109 216,168 160,239 -34,43 -75,55 -195,55 -159,0 -181,24 -143,155 26,92 25,120 -5,150 -29,30 -66,32 -120,5 z m 91,-45 c 4,-8 -4,-54 -16,-102 -25,-99 -19,-141 26,-184 24,-22 35,-24 159,-29 112,-4 136,-8 154,-24 46,-42 19,-78 -122,-164 -100,-62 -171,-134 -218,-226 -36,-70 -35,-91 8,-107 25,-9 71,13 171,84 37,26 103,63 147,82 91,39 110,35 133,-26 21,-59 -7,-309 -44,-381 -21,-41 -69,-71 -177,-112 -110,-42 -146,-68 -183,-132 -44,-75 -52,-171 -55,-694 -4,-512 -2,-531 47,-590 15,-17 56,-52 93,-78 88,-63 210,-174 242,-222 32,-47 58,-178 38,-190 -7,-5 -44,-11 -83,-15 -38,-4 -95,-16 -125,-27 -135,-47 -287,-69 -506,-75 -229,-6 -308,3 -466,53 -147,46 -171,94 -100,200 52,78 63,89 146,155 93,75 208,198 233,252 29,63 39,134 52,382 6,121 15,266 20,321 7,76 6,125 -5,195 -7,52 -17,137 -21,189 -9,125 -22,159 -95,247 -92,111 -109,194 -69,344 34,133 73,212 137,286 33,37 70,84 84,103 13,19 55,71 94,115 112,127 119,139 125,224 l 5,75 63,43 c 66,45 99,53 108,28 z"
       id="path19" />
  </g>
  <path
     style="fill:#000000;stroke-width:0.703589"
     d="m 217.81912,501.26872 c -18.17819,-1.48539 -42.70973,-8.49859 -50.49303,-14.43521 -6.31812,-4.81906 -5.90459,-10.43865 1.61753,-21.98106 5.95713,-9.14099 8.02885,-11.39379 18.48621,-20.102 11.4214,-9.511 23.87852,-21.83201 30.07727,-29.74864 9.65114,-12.32577 10.83924,-18.18052 13.61191,-67.07712 0.75705,-13.3506 1.90833,-31.894 2.55842,-41.20756 l 1.18196,-16.93375 -2.19787,-18.59749 c -1.20884,-10.22862 -2.53747,-22.23856 -2.95251,-26.68876 -1.39629,-14.97133 -2.81158,-18.41476 -13.16876,-32.04002 -10.50192,-13.81567 -12.83752,-19.51017 -12.83071,-31.28298 0.004,-7.28153 0.90875,-12.41641 4.27599,-24.27382 4.3121,-15.18466 9.57742,-25.29098 19.06136,-36.58662 3.24908,-3.86974 8.87111,-10.83526 12.4934,-15.47895 3.62228,-4.64369 9.48114,-11.767525 13.01968,-15.83075 10.02946,-11.516639 13.13169,-15.552116 14.87404,-19.348694 1.67069,-3.64042 3.0959,-12.544857 3.0959,-19.342502 v -3.900463 l 8.18269,-5.439691 c 11.40942,-7.584767 15.73506,-8.608979 16.30665,-3.861043 0.11854,0.984624 -0.61878,5.385299 -1.63847,9.779279 -2.19109,9.441609 -2.98987,19.690576 -1.81264,23.257609 1.07362,3.253105 5.40854,8.252468 8.14824,9.397191 2.68208,1.120643 6.84259,1.544201 23.74867,2.417722 14.45804,0.747032 16.73818,1.316797 19.79158,4.945557 3.88458,4.616559 0.60941,8.516843 -16.85,20.066105 -12.31239,8.14454 -20.93293,15.49489 -26.23964,22.37338 -3.98766,5.16874 -9.01539,14.10448 -10.40286,18.4889 -1.59555,5.04195 -0.92955,7.07692 2.86551,8.75565 4.93521,2.18308 8.30146,0.80436 24.5606,-10.05936 14.55495,-9.72506 29.17262,-16.72149 34.93624,-16.72149 2.29729,0 3.05006,0.38507 4.47018,2.28667 2.71184,3.63123 3.43123,7.01166 3.3932,15.9448 -0.0674,15.84019 -3.81098,37.8187 -7.51944,44.1467 -3.18631,5.43703 -10.7149,10.20465 -24.30189,15.38964 -16.50664,6.29918 -23.48845,11.58259 -28.32971,21.43822 -5.05595,10.2927 -5.82613,17.95821 -6.85706,68.24812 -0.89312,43.56726 -0.52129,97.15787 0.7225,104.13115 1.64314,9.21227 4.80549,13.17232 19.19777,24.04041 18.34866,13.85569 33.39031,28.30863 36.66433,35.22933 2.5987,5.49319 4.80456,15.21632 4.54887,20.05074 -0.24797,4.68851 0.6001,4.29586 -13.93002,6.44946 -5.60017,0.83003 -13.82988,2.72184 -20.05228,4.60953 -18.56828,5.63307 -34.97158,8.16967 -61.49128,9.50898 -15.97102,0.80658 -30.81785,0.80034 -40.82253,-0.0172 z"
     id="path481"
     transform="scale(0.75)" />
</svg>
