<?xml version="1.0" encoding="UTF-8" standalone="no"?>
<svg
   version="1.0"
   width="400.000000pt"
   height="400.000000pt"
   viewBox="0 0 400.000000 400.000000"
   preserveAspectRatio="xMidYMid meet"
   id="svg238"
   sodipodi:docname="king.svg"
   inkscape:version="1.2.2 (732a01da63, 2022-12-09)"
   xmlns:inkscape="http://www.inkscape.org/namespaces/inkscape"
   xmlns:sodipodi="http://sodipodi.sourceforge.net/DTD/sodipodi-0.dtd"
   xmlns="http://www.w3.org/2000/svg"
   xmlns:svg="http://www.w3.org/2000/svg">
  <defs
     id="defs242" />
  <sodipodi:namedview
     id="namedview240"
     pagecolor="#505050"
     bordercolor="#ffffff"
     borderopacity="1"
     inkscape:showpageshadow="0"
     inkscape:pageopacity="0"
     inkscape:pagecheckerboard="1"
     inkscape:deskcolor="#505050"
     inkscape:document-units="pt"
     showgrid="false"
     inkscape:zoom="1.77"
     inkscape:cx="280.79096"
     inkscape:cy="268.64407"
     inkscape:window-width="2160"
     inkscape:window-height="1346"
     inkscape:window-x="-11"
     inkscape:window-y="-11"
     inkscape:window-maximized="1"
     inkscape:current-layer="svg238" />
  <g
     transform="matrix(0.14876658,0,0,-0.14876658,-96.192268,516.74644)"
     fill="#ffffff"
     stroke="none"
     id="g236">
    <path
       d="m 1900,3202 c -20,-16 -21,-21 -10,-61 6,-24 9,-54 6,-67 -6,-22 -11,-24 -71,-24 -110,0 -129,-18 -141,-139 -6,-62 -4,-74 12,-92 16,-18 26,-20 69,-14 27,3 60,9 73,12 19,4 22,1 22,-25 v -30 l -282,-6 -283,-6 -130,-42 c -218,-69 -212,-66 -229,-102 -30,-63 -15,-182 49,-392 14,-44 25,-88 25,-97 0,-9 13,-54 28,-100 16,-45 35,-107 42,-137 7,-30 22,-73 33,-95 20,-38 119,-327 114,-330 -5,-5 -144,-36 -159,-36 -9,0 -24,-9 -34,-21 -16,-16 -19,-37 -19,-126 0,-112 12,-151 53,-167 9,-4 82,-11 162,-16 191,-12 330,-27 410,-44 89,-19 509,-40 760,-39 202,1 206,1 301,32 62,21 116,32 152,32 76,0 105,13 122,55 34,79 4,187 -64,232 -29,20 -47,23 -132,23 -55,0 -99,3 -99,8 0,4 12,25 26,45 14,21 37,63 50,94 14,30 56,110 94,177 65,114 257,557 336,775 49,136 44,170 -33,210 -47,24 -187,43 -388,51 -115,6 -255,14 -310,19 -55,6 -155,10 -223,11 h -123 l 3,43 c 3,42 3,42 48,47 25,3 55,12 66,20 30,19 54,73 54,120 0,56 -29,74 -105,65 l -57,-8 7,55 c 8,64 1,73 -77,94 -72,19 -121,18 -148,-4 z m 130,-43 c 53,-11 55,-15 41,-67 -6,-18 -8,-39 -5,-47 10,-24 61,-38 114,-31 l 50,7 v -29 c 0,-49 -32,-78 -91,-85 -69,-8 -79,-19 -79,-83 v -54 h -75 -75 v 50 c 0,33 -5,52 -13,56 -7,2 -42,-2 -78,-11 -96,-22 -93,-24 -85,47 4,35 12,69 18,76 8,9 35,12 86,11 62,-1 77,1 88,16 20,28 27,78 16,119 -10,34 -9,36 13,36 13,0 47,-5 75,-11 z m 48,-451 c 9,-9 15,-9 24,0 14,14 217,15 353,2 50,-5 187,-14 305,-20 260,-12 392,-36 407,-76 7,-18 -35,-146 -85,-254 -19,-41 -49,-115 -67,-165 -53,-142 -151,-361 -199,-444 -25,-42 -65,-119 -90,-171 -25,-52 -60,-117 -78,-145 -39,-58 -5,-54 -313,-37 -215,12 -322,23 -480,49 -142,22 -425,35 -504,21 -74,-12 -72,-13 -98,77 -19,67 -70,214 -101,290 -28,71 -98,311 -152,529 -49,195 -40,236 56,256 30,6 94,25 142,42 75,27 103,31 207,34 66,2 215,7 330,12 317,13 330,13 343,0 z M 1781,1404 c 85,-16 203,-29 419,-44 80,-6 204,-15 275,-22 72,-6 188,-10 258,-9 144,3 168,-5 193,-64 16,-40 18,-98 4,-125 -8,-15 -22,-18 -82,-18 -54,0 -91,-7 -143,-26 -38,-15 -99,-31 -135,-36 -109,-15 -846,19 -975,45 -44,9 -159,20 -255,25 -246,13 -256,15 -269,53 -12,33 -14,98 -5,143 3,18 16,34 32,42 23,11 195,44 282,54 63,8 333,-5 401,-18 z"
       id="path218" />
    <path
       d="m 2313,2534 c -8,-20 -3,-24 105,-79 51,-27 103,-59 117,-73 27,-27 55,-24 55,7 0,26 -32,50 -150,110 -107,56 -118,59 -127,35 z"
       id="path220" />
    <path
       d="m 1532,2495 c -118,-41 -222,-94 -222,-115 0,-35 21,-32 123,18 96,46 160,68 217,74 17,2 26,10 28,26 3,19 -1,22 -35,22 -21,0 -71,-12 -111,-25 z"
       id="path222" />
    <path
       d="m 1571,2370 c -110,-33 -140,-56 -123,-94 6,-14 30,-37 52,-52 50,-33 253,-104 298,-104 56,0 101,25 118,66 21,50 10,88 -34,121 -20,15 -51,42 -68,60 -29,30 -37,33 -90,32 -35,0 -98,-12 -153,-29 z m 214,-50 c 11,-13 37,-34 58,-47 34,-21 38,-28 32,-51 -8,-34 -31,-52 -68,-52 -56,0 -307,97 -307,119 0,4 42,20 93,34 144,40 153,40 192,-3 z"
       id="path224" />
    <path
       d="m 1682,2278 c 2,-13 10,-23 18,-23 8,0 16,10 18,23 3,17 -2,22 -18,22 -16,0 -21,-5 -18,-22 z"
       id="path226" />
    <path
       d="m 2265,2361 c -162,-45 -255,-105 -255,-164 0,-34 37,-86 65,-93 50,-13 128,2 180,33 28,17 89,52 137,79 91,51 115,77 103,114 -7,22 -81,61 -113,59 -9,0 -62,-13 -117,-28 z m 155,-35 35,-13 -45,-28 c -24,-15 -67,-39 -95,-53 -27,-14 -70,-38 -94,-54 -61,-38 -136,-40 -153,-3 -9,21 -8,28 8,46 24,27 100,66 156,79 24,6 66,17 93,25 60,16 52,16 95,1 z"
       id="path228" />
    <path
       d="m 2203,2249 c -16,-16 -5,-39 19,-39 14,0 19,6 16,22 -4,25 -19,33 -35,17 z"
       id="path230" />
    <path
       d="m 1774,2038 c -24,-28 -44,-90 -37,-118 4,-14 17,-21 52,-25 25,-4 57,-8 71,-11 31,-5 55,9 47,29 -5,14 -49,27 -93,27 -30,0 -32,27 -4,63 11,14 20,32 20,41 0,23 -33,20 -56,-6 z"
       id="path232" />
    <path
       d="m 1663,1850 c -38,-15 -57,-56 -57,-124 1,-97 50,-168 118,-168 62,0 164,40 190,75 20,27 56,122 56,149 0,14 -58,38 -142,58 -89,21 -130,24 -165,10 z m 153,-60 c 104,-16 109,-22 75,-96 -20,-45 -65,-69 -145,-80 -38,-6 -45,-3 -64,21 -17,22 -22,41 -22,89 0,74 12,90 60,81 19,-3 62,-10 96,-15 z"
       id="path234" />
  </g>
  <path
     style="fill:#000000;stroke-width:0.564972"
     d="m 332.76836,478.76119 c -57.21595,-1.47903 -122.09098,-5.63799 -144.63277,-9.27201 -12.81434,-2.06583 -33.41587,-4.02446 -53.38983,-5.07587 -28.50362,-1.50042 -41.346581,-2.76275 -45.418686,-4.46418 -3.855559,-1.61096 -5.606667,-5.69754 -6.65313,-15.5265 -0.748704,-7.03224 0.05891,-16.91351 1.682324,-20.58346 1.398607,-3.16174 4.516461,-5.79622 8.149894,-6.88638 4.434557,-1.33052 29.290868,-6.224 40.262198,-7.92644 14.6122,-2.26741 21.5918,-2.59984 40.96045,-1.95094 25.96944,0.87005 40.98487,2.04082 54.23729,4.22896 18.76145,3.09774 37.211,5.01232 76.27119,7.91496 14.75989,1.09683 35.9887,2.74601 47.17514,3.66484 24.67442,2.02669 42.53563,2.80687 64.97175,2.83797 18.82711,0.0261 24.0347,0.59205 28.26627,3.07191 3.26113,1.91115 6.1002,6.13062 7.99609,11.88392 1.27045,3.85534 1.49685,5.55794 1.54008,11.58192 0.043,5.99814 -0.11957,7.40262 -1.07928,9.32203 -1.8568,3.71362 -3.32701,4.11946 -17.23718,4.75827 -13.56936,0.62316 -16.80197,1.23025 -28.99711,5.44567 -21.49075,7.42858 -29.04895,8.14002 -74.10469,6.97533 z"
     id="path515"
     transform="scale(0.75)" />
  <path
     style="fill:#000000;stroke-width:0.564972"
     d="m 210.15899,368.42171 c -2.30247,-1.00325 -5.21112,-4.42419 -6.99452,-8.22644 -1.40774,-3.00134 -1.46955,-3.54976 -1.46955,-13.03843 0,-11.08911 0.69625,-13.97944 3.74762,-15.55737 2.15654,-1.11519 2.81768,-1.07015 17.32769,1.18024 24.94883,3.86937 27.24133,4.67373 27.21943,9.55041 -0.0122,2.72633 -3.04498,10.39623 -5.55096,14.03854 -4.23982,6.16236 -11.93816,9.82475 -25.22966,12.00266 -6.11533,1.00205 -6.85653,1.00617 -9.05005,0.0504 z"
     id="path517"
     transform="scale(0.75)" />
  <path
     style="fill:#000000;stroke-width:0.564972"
     d="m 286.3033,260.98345 c -2.23469,-1.1136 -3.16917,-1.99866 -4.06573,-3.8507 -1.37818,-2.84694 -1.43709,-3.83615 -0.35324,-5.93208 2.64024,-5.10565 16.18921,-13.05877 28.85013,-16.93474 8.33355,-2.5512 28.97512,-7.99978 31.74483,-8.37942 1.89699,-0.26001 3.70896,0.12656 8.63312,1.84178 3.42773,1.19398 6.23222,2.3502 6.23222,2.5694 0,0.6955 -12.73011,8.27125 -24.79243,14.75409 -6.40654,3.44316 -13.85928,7.62464 -16.56165,9.29218 -9.52043,5.87469 -15.74842,8.08542 -22.77798,8.08542 -3.16712,0 -4.61623,-0.30326 -6.90927,-1.44593 z m 29.14908,-11.14789 c 1.06347,-0.88261 0.51784,-5.19825 -0.89811,-7.10349 -1.60741,-2.16288 -3.73981,-2.22102 -5.80262,-0.15821 -3.72984,3.72984 -0.71046,9.18722 4.52203,8.17334 0.77509,-0.15019 1.75551,-0.56043 2.1787,-0.91164 z"
     id="path519"
     transform="scale(0.75)" />
  <path
     style="fill:#000000;stroke-width:0.564972"
     d="m 227.68362,258.1191 c -0.62147,-0.15279 -3.29096,-0.80054 -5.93221,-1.43945 -14.55507,-3.52083 -45.29157,-15.75725 -50.84746,-20.24274 -1.34052,-1.08225 -1.36049,-1.18024 -0.39229,-1.92473 1.48732,-1.14364 13.21164,-4.92589 25.53354,-8.23706 11.61341,-3.12078 18.89249,-4.06319 22.35679,-2.8945 1.09818,0.37048 4.19489,2.82319 7.15095,5.66385 2.86768,2.75571 7.88556,6.82891 11.15085,9.05155 3.26528,2.22265 6.19441,4.52241 6.50919,5.11058 0.85767,1.60255 0.69766,3.59118 -0.55924,6.95055 -1.27465,3.4068 -3.27898,5.59797 -6.25948,6.84299 -2.25158,0.94053 -6.97066,1.54674 -8.71064,1.11896 z m -17.53944,-16.37965 c 2.43989,-0.93628 3.56514,-7.55005 1.47488,-8.66872 -2.74629,-1.46978 -6.82139,-0.19042 -6.81365,2.13912 0.007,2.10975 1.24324,5.20312 2.4044,6.01643 1.38164,0.96774 1.63453,1.01196 2.93437,0.51317 z"
     id="path521"
     transform="scale(0.75)" />
  <path
     style="fill:#000000;stroke-width:0.564972"
     d="m 367.23164,413.24977 c -66.80459,-3.65547 -87.25507,-5.4055 -118.12295,-10.10823 -17.42733,-2.65507 -26.06453,-3.66248 -41.19909,-4.80536 -29.39866,-2.22001 -58.34771,-2.47706 -69.49152,-0.61704 -9.45596,1.57831 -11.72956,1.08592 -13.77173,-2.98246 -0.5746,-1.14473 -2.24206,-6.11167 -3.70545,-11.03766 -3.54255,-11.92473 -11.81547,-36.26555 -16.46608,-48.44695 -9.284236,-24.3183 -18.926497,-56.27455 -30.070384,-99.65885 -9.560295,-37.21921 -11.164277,-47.17513 -8.853782,-54.95541 1.77897,-5.99044 5.261756,-8.35845 16.454852,-11.18794 9.623917,-2.43282 21.108894,-5.86483 28.123984,-8.40419 14.01084,-5.07172 18.84311,-5.74093 49.19254,-6.81262 13.36159,-0.47181 40.56498,-1.50457 60.45198,-2.29501 19.88701,-0.79044 41.77197,-1.48631 48.63324,-1.54636 l 12.47506,-0.1092 2.24458,1.55367 c 2.53424,1.75417 3.92817,1.93973 5.29299,0.70459 2.10557,-1.90552 7.04732,-2.25913 31.07165,-2.22334 20.16412,0.03 26.01672,0.24468 41.80791,1.53326 21.87946,1.78539 29.79822,2.31049 57.34463,3.80259 43.84147,2.37473 64.76708,5.21482 75.23622,10.21128 4.05509,1.93532 5.83782,3.88637 5.8358,6.38679 -0.005,5.71803 -7.93658,28.34979 -17.2497,49.2176 -3.7422,8.3851 -6.7738,15.90578 -15.25863,37.8531 -11.88992,30.75512 -28.02149,65.87755 -40.35051,87.85311 -2.52782,4.50565 -8.76439,16.4548 -13.85903,26.55367 -14.29085,28.32806 -19.59431,37.09183 -23.35762,38.59761 -2.96395,1.18594 -11.31876,1.53019 -22.40896,0.92335 z M 224.0113,378.84879 c 9.2369,-2.05859 19.28173,-6.41455 24.73853,-10.7279 2.50657,-1.98133 3.39261,-3.25831 6.01472,-8.66858 3.46435,-7.1481 6.25222,-14.74233 7.40745,-20.17807 0.97231,-4.57503 0.46882,-5.53136 -4.13265,-7.84958 -9.517,-4.79464 -36.48802,-11.36816 -46.64337,-11.36816 -15.17941,0 -22.00645,9.22895 -21.10562,28.53107 0.72709,15.57918 7.1563,26.96172 17.27025,30.57594 2.99411,1.06995 10.91786,0.91836 16.45069,-0.31472 z m 25.0981,-64.96645 c 3.09487,-2.90748 0.96279,-6.47252 -4.92715,-8.2387 -2.35074,-0.7049 -10.98677,-1.88335 -14.33963,-1.95675 -1.31382,-0.0288 -2.44149,-1.82707 -2.44149,-3.89348 0,-1.42377 0.62853,-3.09911 1.94545,-5.18564 4.79814,-7.60211 5.38871,-8.78257 5.39388,-10.78153 0.003,-1.16505 -0.37153,-2.36221 -0.86793,-2.77419 -1.14048,-0.94651 -4.32852,-0.80424 -6.43945,0.28736 -5.77654,2.98717 -11.38142,14.55605 -11.55043,23.84093 -0.0537,2.95078 0.1443,3.70658 1.29082,4.92711 0.74485,0.79292 2.21984,1.72734 3.27777,2.07649 3.63054,1.19819 18.53327,3.25925 22.8672,3.16256 3.73355,-0.0833 4.53745,-0.28655 5.79096,-1.46416 z m 56.52344,-42.95678 c 6.44076,-1.76257 10.29936,-3.69328 29.96038,-14.99122 20.01189,-11.49956 23.23366,-13.54636 27.02303,-17.16783 4.58963,-4.38625 5.8305,-8.03966 4.1206,-12.132 -1.98899,-4.76034 -15.13883,-11.66276 -22.21879,-11.66276 -2.67539,0 -23.04958,5.03394 -32.08868,7.9283 -21.67306,6.93979 -36.70207,15.99797 -40.74508,24.55758 -2.01346,4.26278 -1.83199,8.0559 0.63131,13.19595 2.45466,5.12202 7.43431,10.34498 10.74377,11.26874 3.75961,1.0494 17.27754,0.4525 22.57346,-0.99676 z m -69.24111,-3.15227 c 10.19623,-2.4034 16.80705,-9.89211 17.44008,-19.75605 0.47264,-7.36468 -1.8806,-11.5583 -10.21947,-18.21175 -2.17112,-1.7323 -6.82788,-5.88395 -10.34835,-9.22591 -3.97632,-3.77467 -7.20848,-6.36205 -8.53299,-6.83075 -2.76779,-0.97941 -15.37249,-0.96292 -21.05868,0.0276 -15.61241,2.71953 -34.90518,8.89363 -41.09216,13.15038 -4.41731,3.0392 -5.72395,6.8408 -3.76795,10.96276 0.49643,1.04615 2.78799,3.69303 5.09235,5.88195 3.49988,3.32454 5.42106,4.57663 11.66801,7.60437 11.74372,5.6919 35.15557,13.98404 46.35606,16.41867 4.69977,1.02158 10.07253,1.01369 14.4631,-0.0213 z m -90.75946,-49.31854 c 3.48982,-1.54611 11.09601,-5.00086 16.90265,-7.67724 14.66309,-6.75846 24.32959,-9.88464 36.84387,-11.91543 3.32181,-0.53906 5.42347,-2.91969 5.42347,-6.14338 0,-1.95866 -0.25864,-2.70437 -1.0928,-3.1508 -2.87421,-1.53823 -14.24417,-0.0339 -25.23658,3.33892 -16.01191,4.91301 -39.29761,15.69708 -44.98082,20.83152 -2.40624,2.1739 -2.82157,4.52315 -1.20716,6.82805 0.83526,1.1925 1.23526,1.29467 3.9656,1.01287 1.86426,-0.19241 5.48634,-1.39871 9.38177,-3.12451 z m 238.5742,0.77997 c 1.63333,-1.63332 1.87937,-5.06137 0.54806,-7.63585 -1.84396,-3.56582 -9.213,-8.33491 -28.09841,-18.18469 -19.36959,-10.10232 -23.71672,-11.59552 -25.56143,-8.78013 -1.22111,1.86365 -1.56993,4.48066 -0.73432,5.50914 1.3208,1.62565 5.74357,4.30018 16.2498,9.82655 12.71035,6.68576 22.74101,12.70463 26.70353,16.02338 3.10223,2.59823 6.77546,4.59495 8.49164,4.61594 0.55791,0.007 1.63842,-0.61163 2.40113,-1.37434 z"
     id="path523"
     transform="scale(0.75)" />
  <path
     style="fill:#000000;stroke-width:0.564972"
     d="m 250.95676,131.18314 c -0.19199,-4.44532 -0.68121,-9.08515 -1.08715,-10.31074 l -0.73806,-2.22833 -4.79177,0.0814 c -3.17626,0.054 -7.87393,0.76824 -13.93388,2.11865 -9.62969,2.14589 -13.07463,2.47585 -14.19121,1.35927 -1.39594,-1.39594 -0.10291,-15.2768 2.16087,-23.197433 1.0993,-3.846264 1.8816,-4.047584 17.20921,-4.428653 15.59875,-0.387811 16.88789,-0.702102 19.19231,-4.67907 3.25896,-5.62431 4.28524,-15.516857 2.37089,-22.85347 -0.51331,-1.967187 -0.93328,-4.230069 -0.93328,-5.028627 v -1.451923 l 5.79096,0.362273 c 6.68054,0.417922 17.73864,2.671047 19.82794,4.040005 2.10464,1.379015 2.23916,3.319623 0.6661,9.609779 -1.997,7.98542 -1.91528,10.3213 0.44097,12.60507 4.69833,4.553798 14.8436,5.646595 29.06499,3.13073 l 1.83616,-0.324829 v 3.915135 c 0,11.117753 -5.07427,16.008523 -19.00101,18.313873 -7.16396,1.18588 -11.10294,2.73549 -12.75642,5.01843 -1.42461,1.96694 -2.13376,6.9797 -2.13761,15.10995 l -0.003,6.92091 h -14.31883 -14.31883 z"
     id="path525"
     transform="scale(0.75)" />
</svg>
