<?xml version="1.0" encoding="UTF-8" standalone="no"?>
<svg
   version="1.0"
   width="400.000000pt"
   height="400.000000pt"
   viewBox="0 0 400.000000 400.000000"
   preserveAspectRatio="xMidYMid meet"
   id="svg275"
   sodipodi:docname="knight.svg"
   inkscape:version="1.2.2 (732a01da63, 2022-12-09)"
   xmlns:inkscape="http://www.inkscape.org/namespaces/inkscape"
   xmlns:sodipodi="http://sodipodi.sourceforge.net/DTD/sodipodi-0.dtd"
   xmlns="http://www.w3.org/2000/svg"
   xmlns:svg="http://www.w3.org/2000/svg">
  <defs
     id="defs279" />
  <sodipodi:namedview
     id="namedview277"
     pagecolor="#505050"
     bordercolor="#ffffff"
     borderopacity="1"
     inkscape:showpageshadow="0"
     inkscape:pageopacity="0"
     inkscape:pagecheckerboard="1"
     inkscape:deskcolor="#505050"
     inkscape:document-units="pt"
     showgrid="false"
     inkscape:zoom="1.77"
     inkscape:cx="307.9096"
     inkscape:cy="250.56497"
     inkscape:window-width="2160"
     inkscape:window-height="1346"
     inkscape:window-x="-11"
     inkscape:window-y="-11"
     inkscape:window-maximized="1"
     inkscape:current-layer="svg275" />
  <g
     transform="matrix(0.1294386,0,0,-0.1294386,-49.79336,473.15759)"
     fill="#ffffff"
     stroke="none"
     id="g273">
    <path
       d="m 1634,3427 c -101,-55 -164,-136 -164,-212 0,-16 -17,-65 -39,-110 -21,-44 -48,-109 -61,-145 -12,-36 -41,-108 -65,-160 -23,-52 -48,-117 -54,-145 -15,-65 -41,-296 -41,-360 0,-56 -45,-315 -89,-510 -17,-71 -36,-166 -44,-210 -15,-85 -44,-165 -122,-334 -44,-96 -47,-108 -42,-162 8,-95 31,-121 162,-185 89,-44 138,-61 232,-80 237,-49 592,-56 798,-15 55,10 132,22 170,25 281,27 425,102 425,223 0,32 -7,44 -55,90 -67,63 -127,87 -253,102 -156,19 -257,70 -306,153 -62,107 -86,183 -98,316 -10,111 -9,139 6,221 35,193 79,220 216,135 41,-26 113,-64 160,-86 47,-22 136,-65 197,-95 107,-53 116,-55 175,-51 81,5 127,28 205,101 87,82 128,165 128,262 0,68 -3,77 -68,204 -37,73 -95,174 -129,225 -58,86 -188,245 -239,293 -37,34 -121,72 -253,115 -108,36 -136,41 -266,48 -160,9 -228,26 -260,67 -17,22 -20,41 -20,120 0,102 -15,154 -48,172 -34,18 -113,12 -158,-12 z m 140,-49 c 12,-17 16,-48 16,-116 0,-182 45,-215 315,-231 124,-8 154,-14 265,-50 196,-65 221,-81 323,-201 111,-131 197,-261 273,-410 50,-101 58,-122 58,-175 1,-75 -34,-151 -98,-214 -35,-35 -49,-42 -68,-38 -36,9 -186,124 -203,155 -33,64 -95,101 -95,58 0,-37 108,-152 199,-213 l 63,-43 -26,-10 c -52,-20 -101,-12 -178,29 -41,22 -110,53 -155,70 -44,17 -118,55 -164,83 -149,91 -198,104 -259,73 -38,-20 -86,-119 -101,-210 -12,-73 -7,-250 11,-343 5,-29 31,-98 58,-154 55,-116 100,-165 189,-204 51,-23 196,-54 252,-54 36,0 120,-41 164,-80 48,-42 50,-80 7,-120 -53,-49 -177,-84 -375,-105 -33,-3 -107,-15 -164,-26 -93,-19 -132,-20 -375,-17 -246,4 -282,7 -388,31 -158,35 -318,110 -342,161 -28,59 -21,100 40,229 72,153 100,237 124,369 10,59 27,135 36,170 35,137 75,382 89,549 21,245 38,332 84,431 21,47 50,116 64,156 15,39 30,79 36,89 30,57 71,167 71,191 1,115 200,248 254,170 z"
       id="path269" />
    <path
       d="m 2280,2810 c -18,-11 -4,-42 17,-38 10,2 19,10 21,19 4,19 -19,31 -38,19 z"
       id="path271" />
  </g>
  <path
     style="fill:#000000;stroke-width:0.564972"
     d="m 218.36158,486.93682 c -15.12583,-0.27407 -34.28659,-1.32692 -40.96045,-2.2507 -28.77194,-3.98256 -62.523,-16.89098 -72.74926,-27.82369 -5.151962,-5.50786 -6.256571,-14.32677 -3.00646,-24.00279 0.81812,-2.43568 3.16126,-8.15602 5.20696,-12.71187 2.04571,-4.55585 5.31438,-11.84269 7.26372,-16.19297 8.40296,-18.75268 11.99619,-30.3847 16.66708,-53.9548 1.81656,-9.16667 4.70892,-22.64124 6.42747,-29.9435 7.0778,-30.07424 11.91121,-60.62639 15.32863,-96.89266 2.87723,-30.53382 5.13697,-45.05225 8.81037,-56.60532 0.96909,-3.04786 4.11565,-11.00767 6.99237,-17.68846 2.8767,-6.68079 7.06785,-16.9774 9.31365,-22.88136 2.24581,-5.90395 5.56454,-13.91243 7.37497,-17.79661 6.51836,-13.984822 10.43015,-25.083456 11.32308,-32.126175 1.20411,-9.497049 8.10734,-18.958308 19.06592,-26.130912 7.86345,-5.146785 16.12353,-6.953301 20.82538,-4.554602 4.6092,2.351442 5.26143,4.694205 5.88232,21.129072 0.28564,7.560968 0.87117,15.152002 1.34346,17.41709 3.47681,16.674907 13.46609,21.354547 51.16198,23.967647 22.68086,1.57224 29.1413,2.7455 46.89265,8.51601 28.10337,9.13568 35.98578,13.20205 46.69409,24.08846 21.58428,21.94328 45.98927,57.87628 60.86355,89.61325 5.05834,10.79286 5.54408,12.46756 5.85048,20.17056 0.41747,10.49522 -1.86847,18.48446 -8.00168,27.96541 -2.87276,4.44085 -11.8373,14.03305 -14.86159,15.90217 -4.03663,2.49478 -8.57833,0.50027 -22.18326,-9.74189 -10.79709,-8.12833 -15.88134,-12.88508 -18.8316,-17.61859 -4.63759,-7.44071 -11.56448,-12.71185 -14.58237,-11.09672 -1.80674,0.96694 -1.39157,4.82217 0.93544,8.68656 5.99451,9.95486 19.75882,22.98957 35.88276,33.98072 l 6.80739,4.64037 -4.60864,1.53482 c -5.8165,1.93707 -11.43151,2.02337 -17.18491,0.26411 -2.17514,-0.66512 -9.4209,-3.84202 -16.10169,-7.05979 -6.68079,-3.21777 -15.89977,-7.39395 -20.48663,-9.28039 -10.95762,-4.50655 -21.68358,-9.91704 -33.77251,-17.03586 -18.23374,-10.7373 -26.11372,-13.87759 -33.58267,-13.38319 -5.45067,0.3608 -9.25956,2.11941 -12.66829,5.84911 -5.13458,5.61805 -11.04717,19.29239 -13.43103,31.0626 -0.85815,4.2371 -1.02233,7.90707 -1.02193,22.84468 5.6e-4,30.01201 1.71203,40.31882 9.73793,58.6516 12.46712,28.47742 22.92592,38.78363 45.70177,45.03498 11.65032,3.1977 26.24716,5.90732 31.86229,5.91461 5.9148,0.008 15.03968,3.71696 24.2853,9.87201 13.07182,8.70227 15.15634,15.76961 7.01444,23.78174 -8.59456,8.45759 -27.12429,13.86714 -62.67822,18.29823 -7.45763,0.92944 -18.64407,2.6093 -24.85876,3.73301 -20.89579,3.77828 -19.65021,3.67401 -46.04519,3.8547 -13.51695,0.0925 -28.77119,0.0922 -33.89831,-5.6e-4 z m 114.22543,-335.8211 c 1.3693,-1.36928 1.63405,-2.0083 1.33152,-3.21369 -0.49024,-1.95327 -1.84634,-2.94644 -4.05368,-2.96881 -3.87332,-0.0392 -5.71592,4.07446 -3.02869,6.7617 1.63297,1.63297 3.75212,1.41954 5.75085,-0.5792 z"
     id="path588"
     transform="scale(0.75)" />
</svg>
