<?xml version="1.0" encoding="UTF-8" standalone="no"?>
<svg
   version="1.0"
   width="401.000000pt"
   height="400.000000pt"
   viewBox="0 0 401.000000 400.000000"
   preserveAspectRatio="xMidYMid meet"
   id="svg313"
   sodipodi:docname="pawn.svg"
   inkscape:version="1.2.2 (732a01da63, 2022-12-09)"
   xmlns:inkscape="http://www.inkscape.org/namespaces/inkscape"
   xmlns:sodipodi="http://sodipodi.sourceforge.net/DTD/sodipodi-0.dtd"
   xmlns="http://www.w3.org/2000/svg"
   xmlns:svg="http://www.w3.org/2000/svg">
  <defs
     id="defs317" />
  <sodipodi:namedview
     id="namedview315"
     pagecolor="#505050"
     bordercolor="#ffffff"
     borderopacity="1"
     inkscape:showpageshadow="0"
     inkscape:pageopacity="0"
     inkscape:pagecheckerboard="1"
     inkscape:deskcolor="#505050"
     inkscape:document-units="pt"
     showgrid="false"
     inkscape:zoom="1.77"
     inkscape:cx="363.84181"
     inkscape:cy="253.38983"
     inkscape:window-width="2160"
     inkscape:window-height="1346"
     inkscape:window-x="-11"
     inkscape:window-y="-11"
     inkscape:window-maximized="1"
     inkscape:current-layer="svg313" />
  <g
     transform="matrix(0.15917742,0,0,-0.15917742,-82.815415,549.52164)"
     fill="#ffffff"
     stroke="none"
     id="g311">
    <path
       d="m 1677,3229 c -49,-11 -87,-32 -111,-58 -11,-12 -31,-21 -45,-21 -33,0 -99,-65 -132,-130 -39,-77 -50,-143 -33,-203 7,-29 19,-72 26,-97 12,-46 85,-128 153,-172 l 30,-19 -105,3 c -91,3 -105,1 -108,-14 -4,-21 11,-25 136,-37 57,-5 106,-11 108,-14 2,-2 0,-24 -4,-49 -5,-25 -5,-146 0,-269 5,-123 6,-237 3,-254 -3,-16 -29,-67 -58,-112 -29,-45 -86,-135 -127,-200 l -75,-118 1,-122 c 2,-153 14,-177 111,-225 61,-30 71,-32 168,-30 57,0 138,6 182,11 43,6 168,15 278,20 312,14 381,38 431,146 40,84 32,125 -48,262 -56,94 -72,108 -146,123 -102,22 -223,141 -286,281 -20,45 -25,78 -31,189 -4,74 -13,173 -21,220 -7,47 -14,91 -14,99 0,11 22,13 123,7 123,-6 155,-1 144,26 -5,14 -119,28 -232,28 -29,0 -45,5 -49,15 -3,8 -12,15 -21,15 -9,0 -18,-7 -21,-15 -4,-8 -16,-15 -27,-15 -13,0 18,26 84,68 167,109 209,154 209,224 0,54 -78,274 -114,321 -39,51 -115,91 -215,112 -80,17 -108,17 -164,4 z m 198,-65 c 64,-19 128,-57 149,-89 22,-33 96,-253 96,-285 0,-39 -22,-63 -124,-134 -181,-125 -225,-142 -285,-112 -15,8 -55,21 -89,29 -48,11 -72,24 -116,63 -47,42 -58,59 -80,124 -14,41 -26,84 -27,95 -8,59 41,174 96,225 24,23 27,23 36,7 12,-21 35,-22 46,-3 4,8 17,15 28,18 14,2 20,11 20,28 0,14 7,29 15,34 43,28 145,28 235,0 z m -278,-640 c -3,-3 -12,-4 -19,-1 -8,3 -5,6 6,6 11,1 17,-2 13,-5 z m 199,-71 112,-6 12,-76 c 6,-42 15,-146 20,-231 6,-118 13,-169 29,-211 23,-59 82,-151 135,-208 49,-53 142,-109 201,-121 l 54,-11 56,-92 c 31,-51 59,-107 62,-124 6,-37 -9,-83 -43,-130 -35,-47 -121,-64 -379,-74 -115,-4 -239,-13 -275,-18 -36,-6 -108,-11 -160,-11 -79,0 -103,4 -145,24 -78,36 -84,47 -91,167 l -6,104 57,94 c 31,52 68,110 83,129 47,62 122,196 128,230 4,19 1,128 -6,243 -7,115 -9,226 -6,247 16,90 17,94 34,87 10,-4 67,-9 128,-12 z"
       id="path303" />
    <path
       d="m 1634,2935 c -4,-9 -2,-21 4,-27 15,-15 44,-1 40,19 -4,23 -36,29 -44,8 z"
       id="path305" />
    <path
       d="m 1747,2944 c -16,-16 -7,-44 14,-44 15,0 20,5 17,22 -3,22 -19,33 -31,22 z"
       id="path307" />
    <path
       d="m 1695,2791 c -31,-6 -46,-35 -23,-44 8,-2 46,-2 86,1 67,4 73,6 70,26 -3,18 -10,21 -53,23 -27,0 -63,-2 -80,-6 z"
       id="path309" />
  </g>
  <path
     style="fill:#000000;stroke-width:0.564972"
     d="m 221.167,490.0858 c -8.76515,-0.63125 -12.73861,-1.83539 -22.69064,-6.87631 -11.84367,-5.99907 -13.35154,-9.41363 -14.84516,-33.61665 -0.456,-7.38905 -0.95059,-15.1696 -1.09909,-17.29009 l -0.27,-3.85545 8.64105,-14.25554 c 10.61241,-17.50778 16.54974,-26.90465 19.73269,-31.23045 7.19604,-9.77982 15.15488,-22.68386 21.77308,-35.30178 5.28262,-10.07156 6.35864,-12.93281 6.87488,-18.281 0.49096,-5.08635 -0.1761,-28.23449 -1.44899,-50.28248 -0.46642,-8.0791 -1.00368,-22.44351 -1.1939,-31.92091 -0.34095,-16.98693 -0.32452,-17.34643 1.1568,-25.3146 1.87899,-10.10724 2.85586,-12.7651 4.51332,-12.27985 3.03726,0.88921 15.7191,2.0255 31.98275,2.86564 9.78813,0.50562 18.33274,1.02229 18.988,1.14814 0.94961,0.18237 1.26103,0.77532 1.53454,2.92169 0.18873,1.48108 0.85872,6.12508 1.48885,10.32 1.39949,9.31652 3.10502,27.44128 4.25309,45.19774 2.19856,34.0035 3.45269,43.33188 7.02597,52.25989 6.12994,15.31598 22.65313,39.08966 33.79545,48.62513 8.81741,7.54584 22.8259,15.87868 31.72446,18.87105 1.98694,0.66816 6.52083,1.80569 10.07529,2.52784 3.55447,0.72215 6.67819,1.53336 6.9416,1.80268 0.26341,0.26932 4.08895,6.46426 8.5012,13.76652 9.06455,15.00179 15.53877,27.69297 16.33165,32.01432 1.19045,6.48818 -1.87059,16.16748 -7.94486,25.12242 -7.88306,11.62153 -22.05668,14.55006 -84.41016,17.44067 -28.21516,1.30802 -43.75366,2.37831 -57.62712,3.96937 -17.1194,1.96332 -31.79644,2.51683 -43.80475,1.65201 z"
     id="path562"
     transform="scale(0.75)" />
  <path
     style="fill:#000000;stroke-width:0.564972"
     d="m 257.06215,194.10484 c -1.55368,-0.5808 -5.19003,-1.98086 -8.08078,-3.11123 -2.89075,-1.13037 -8.73821,-2.96585 -12.99435,-4.07884 -13.67242,-3.57537 -20.91866,-7.92762 -31.47704,-18.9058 -6.12668,-6.3703 -8.12217,-9.95413 -12.07217,-21.68129 -5.75664,-17.09088 -6.60301,-22.29991 -4.91115,-30.22599 1.97328,-9.24447 8.21647,-22.731781 14.18718,-30.648865 3.32609,-4.410362 9.1786,-10.029096 10.44637,-10.029096 0.26109,0 1.04147,0.826271 1.73417,1.836158 1.93113,2.815369 3.41123,3.787227 5.78878,3.800997 1.82454,0.01056 2.54804,-0.377396 4.55528,-2.442702 1.41653,-1.457497 3.51978,-2.871142 5.1756,-3.478638 3.96496,-1.454691 4.75171,-2.392077 5.30744,-6.32365 0.26513,-1.875767 0.89338,-4.205892 1.39611,-5.178053 2.4525,-4.742615 15.94303,-7.604814 29.70162,-6.301604 16.44825,1.557974 31.398,6.450904 43.14982,14.122573 6.16742,4.02613 9.36455,7.421272 11.77951,12.509032 3.99974,8.426526 13.46451,35.900948 16.9088,49.083008 2.5236,9.65836 1.73368,13.318 -4.24515,19.66747 -5.1403,5.45893 -29.84069,23.07076 -46.12405,32.88728 -14.32349,8.635 -23.192,11.12874 -30.22599,8.49924 z m 15.81921,-45.25844 c 1.8644,-0.35515 3.70762,-0.90759 4.09604,-1.22767 0.8391,-0.69144 0.93783,-4.60487 0.15317,-6.07102 -1.28324,-2.39775 -9.3202,-3.31734 -20.50705,-2.3464 -7.71211,0.66935 -10.5057,1.50277 -12.97945,3.87222 -1.87368,1.79467 -2.18848,5.34031 -0.56497,6.36349 1.26621,0.798 24.97942,0.32805 29.80226,-0.59062 z m -29.64971,-32.46807 c 3.18145,-1.64519 3.72641,-4.92497 1.25988,-7.58253 -1.50043,-1.61663 -2.40284,-1.93724 -5.06274,-1.79871 -4.06904,0.21192 -4.97997,8.10841 -1.11502,9.66563 1.83206,0.73816 3.08005,0.66599 4.91788,-0.28439 z m 23.74934,-0.33613 c 1.18726,-2.21842 -0.61054,-7.77795 -2.9138,-9.01062 -1.58175,-0.84652 -4.10529,0.20924 -4.95435,2.07274 -0.98729,2.16686 -0.76038,4.99484 0.53269,6.6387 0.97991,1.24576 1.62188,1.48862 3.93492,1.48862 2.23183,0 2.88653,-0.229 3.40054,-1.18944 z"
     id="path564"
     transform="scale(0.75)" />
</svg>
