<?xml version="1.0" encoding="UTF-8" standalone="no"?>
<svg
   version="1.0"
   width="400.000000pt"
   height="400.000000pt"
   viewBox="0 0 400.000000 400.000000"
   preserveAspectRatio="xMidYMid meet"
   id="svg365"
   sodipodi:docname="queen.svg"
   inkscape:version="1.2.2 (732a01da63, 2022-12-09)"
   xmlns:inkscape="http://www.inkscape.org/namespaces/inkscape"
   xmlns:sodipodi="http://sodipodi.sourceforge.net/DTD/sodipodi-0.dtd"
   xmlns="http://www.w3.org/2000/svg"
   xmlns:svg="http://www.w3.org/2000/svg">
  <defs
     id="defs369" />
  <sodipodi:namedview
     id="namedview367"
     pagecolor="#505050"
     bordercolor="#ffffff"
     borderopacity="1"
     inkscape:showpageshadow="0"
     inkscape:pageopacity="0"
     inkscape:pagecheckerboard="1"
     inkscape:deskcolor="#505050"
     inkscape:document-units="pt"
     showgrid="false"
     inkscape:zoom="10.012632"
     inkscape:cx="305.01471"
     inkscape:cy="310.15821"
     inkscape:window-width="2160"
     inkscape:window-height="1346"
     inkscape:window-x="-11"
     inkscape:window-y="-11"
     inkscape:window-maximized="1"
     inkscape:current-layer="svg365" />
  <g
     transform="matrix(0.12713838,0,0,-0.12713838,-51.65729,460.92628)"
     fill="#ffffff"
     stroke="none"
     id="g363">
    <path
       d="m 1615,3125 c -47,-17 -80,-54 -98,-110 -16,-54 -11,-478 8,-648 8,-71 15,-134 15,-140 0,-24 -55,65 -121,197 -88,176 -132,237 -257,358 -114,111 -149,127 -233,109 -117,-25 -185,-71 -228,-151 -28,-51 -31,-67 -31,-141 0,-217 145,-559 462,-1093 16,-27 27,-50 26,-52 -2,-1 -33,-8 -68,-13 -36,-6 -94,-19 -129,-28 -98,-27 -100,-33 -103,-243 l -3,-176 30,-59 c 56,-109 -3,-100 685,-96 333,1 616,7 637,13 21,5 135,15 253,23 373,25 515,46 601,90 39,21 67,80 85,178 28,162 10,300 -45,349 -39,35 -58,35 -223,-1 -73,-16 -157,-32 -186,-36 l -52,-7 11,29 c 15,42 54,107 124,208 34,50 83,126 108,170 25,44 85,132 132,195 102,136 279,478 296,570 37,204 -109,376 -281,330 -70,-19 -138,-69 -256,-192 -126,-130 -157,-172 -231,-313 l -53,-100 v 130 c 0,72 7,168 15,215 40,225 0,346 -125,380 -110,30 -173,-69 -266,-422 -25,-95 -49,-193 -54,-218 l -8,-45 -1,40 c -2,57 -67,374 -89,432 -21,56 -76,144 -122,197 -61,69 -152,98 -225,71 z m 130,-68 c 44,-25 100,-93 144,-177 32,-60 69,-213 101,-416 22,-138 41,-194 65,-194 19,0 41,44 50,100 15,99 99,411 136,506 43,111 67,144 105,144 34,0 78,-24 97,-54 28,-42 30,-96 8,-249 -22,-156 -28,-377 -11,-421 13,-36 51,-34 83,4 14,16 47,72 72,124 52,105 135,214 253,333 98,99 149,134 206,140 62,7 90,-2 136,-43 40,-37 70,-106 70,-164 0,-95 -139,-381 -292,-598 -48,-69 -105,-155 -125,-191 -20,-35 -70,-116 -111,-179 -41,-64 -92,-151 -113,-196 l -37,-80 -59,-14 c -97,-22 -245,-25 -418,-7 -98,10 -300,19 -521,22 l -360,6 -36,56 c -20,31 -67,115 -104,186 -37,72 -88,166 -115,210 -50,85 -166,337 -192,420 -80,249 -75,380 15,449 48,36 132,66 185,66 44,0 49,-3 140,-92 104,-102 170,-195 258,-365 72,-138 147,-243 175,-243 32,0 43,36 36,114 -14,146 -32,616 -26,684 4,40 14,82 24,97 32,49 97,58 161,22 z M 3074,1448 c 18,-29 36,-116 36,-171 0,-51 -26,-201 -39,-225 -38,-71 -198,-103 -616,-122 -104,-5 -222,-15 -260,-24 -57,-12 -171,-15 -580,-17 -281,-2 -539,-3 -573,-3 -59,-1 -66,1 -88,29 -43,54 -58,118 -49,214 4,47 7,114 6,148 -3,72 -4,71 104,97 97,24 172,31 190,16 13,-11 20,-11 40,0 20,11 92,12 357,6 183,-3 356,-11 383,-16 65,-13 623,-25 699,-16 45,6 59,12 63,26 4,14 21,22 62,30 31,7 88,20 126,30 95,25 121,25 139,-2 z"
       id="path349" />
    <path
       d="m 1673,2119 c -7,-7 -8,-23 -2,-47 11,-50 3,-57 -33,-27 -32,27 -78,31 -85,8 -2,-6 12,-22 31,-36 l 36,-24 -25,-23 c -47,-44 -29,-74 70,-120 66,-29 75,-31 145,-25 106,10 146,28 133,62 -3,7 -36,34 -75,59 -81,54 -90,70 -58,94 15,11 21,23 17,34 -8,20 -27,21 -53,1 -30,-23 -49,-18 -59,17 -11,35 -25,44 -42,27 z m 37,-189 c 0,-22 -2,-40 -4,-40 -2,0 -23,9 -47,19 l -42,19 34,21 c 49,30 59,27 59,-19 z m 107,-10 c 31,-22 49,-40 41,-40 -8,0 -36,-3 -62,-6 l -46,-7 v 47 c 0,25 3,46 6,46 3,0 31,-18 61,-40 z"
       id="path351" />
    <path
       d="m 2291,2059 -34,-40 -28,27 c -42,41 -67,11 -33,-41 15,-23 14,-24 -13,-41 -46,-29 -73,-56 -73,-75 0,-58 118,-105 201,-80 45,14 104,62 112,91 4,14 -1,25 -14,33 -23,14 -24,24 -4,44 9,8 14,20 12,27 -7,20 -35,18 -58,-5 l -22,-22 7,29 c 19,76 19,94 0,93 -11,0 -34,-18 -53,-40 z m 4,-89 c 3,-5 1,-10 -4,-10 -6,0 -11,5 -11,10 0,6 2,10 4,10 3,0 8,-4 11,-10 z m -33,-73 c 2,-14 10,-22 23,-22 16,0 20,7 20,31 0,30 0,30 27,15 35,-20 32,-31 -16,-55 -53,-26 -126,-15 -126,18 0,28 39,59 57,44 6,-5 13,-19 15,-31 z"
       id="path353" />
    <path
       d="m 1983,1803 c -4,-10 -7,-40 -8,-68 0,-49 0,-50 30,-48 71,4 96,14 93,37 -2,17 -9,21 -40,20 -36,-1 -37,-1 -35,35 2,27 -2,36 -16,39 -10,2 -20,-4 -24,-15 z"
       id="path355" />
    <path
       d="m 1608,1777 c -7,-7 -21,-16 -30,-20 -27,-10 -24,-68 5,-95 44,-41 84,-21 101,52 13,54 -40,98 -76,63 z"
       id="path357" />
    <path
       d="m 2370,1761 c -26,-25 -28,-32 -20,-61 17,-61 51,-78 83,-42 20,22 22,61 6,96 -17,37 -37,39 -69,7 z"
       id="path359" />
    <path
       d="m 2130,1661 c -63,-70 -164,-78 -250,-21 -54,36 -83,39 -78,9 2,-13 25,-35 62,-57 53,-33 64,-36 130,-36 39,1 85,8 103,15 51,23 105,77 101,102 -5,34 -30,29 -68,-12 z"
       id="path361" />
  </g>
  <path
     style="fill:#000000;stroke-width:0.564972"
     d="m 307.62712,374.28896 c -4.50565,-0.26727 -12.51413,-0.88162 -17.79661,-1.36523 -26.84875,-2.45801 -46.44914,-3.15561 -129.49415,-4.60882 l -21.58455,-0.37771 -4.47523,-7.13244 c -5.63676,-8.98363 -9.84405,-16.35737 -16.48051,-28.88386 -10.42241,-19.67259 -13.80073,-25.88482 -19.663475,-36.15819 -9.672576,-16.9494 -25.035883,-49.30287 -32.193767,-67.79661 -4.233236,-10.93736 -8.759706,-27.26143 -10.931299,-39.42217 -0.84487,-4.73121 -1.187292,-9.04372 -1.198779,-15.0976 -0.01407,-7.41648 0.158,-9.05029 1.378161,-13.08561 3.590987,-11.87612 11.4733,-18.72652 27.945151,-24.28672 5.094501,-1.71969 7.15513,-2.11524 12.164712,-2.33512 7.992206,-0.3508 8.836346,0.09 19.741336,10.30949 21.16794,19.83724 31.11591,33.48014 49.65528,68.09852 11.09907,20.72518 21.32762,35.58114 26.84662,38.99206 3.33082,2.05857 6.63505,0.46469 8.09924,-3.90687 0.77763,-2.32171 0.82973,-13.29361 0.10356,-21.80835 -1.51386,-17.75098 -3.32564,-59.52291 -3.77372,-87.00565 -0.37775,-23.16873 -0.0216,-27.8422 2.66953,-35.035 3.78415,-10.11405 14.92625,-13.251362 26.62662,-7.497335 7.47531,3.676219 18.61658,16.909405 25.46513,30.246545 5.69943,11.09927 10.80078,31.56276 17.07653,68.50048 4.06577,23.93019 6.42252,32.07355 10.04385,34.70479 1.44167,1.04752 1.70876,1.07475 3.05949,0.31186 0.81396,-0.45973 2.33547,-2.39733 3.38112,-4.30579 1.84721,-3.3714 2.30041,-5.07296 5.84731,-21.9538 1.97605,-9.40469 7.71512,-31.98608 11.63061,-45.76271 8.91531,-31.36844 16.13951,-48.88178 21.83709,-52.93882 6.01498,-4.28304 18.22559,0.76913 22.38762,9.26293 0.96022,1.95959 2.03067,5.08832 2.37879,6.95272 0.84804,4.54185 0.32128,14.82944 -1.47013,28.71182 -4.58685,35.54526 -5.46664,68.63909 -2.03123,76.40542 2.19521,4.96263 7.31524,5.24872 12.26588,0.68537 3.10612,-2.86312 7.0835,-9.23882 14.11089,-22.6196 10.62436,-20.22977 20.99741,-34.01104 40.87562,-54.30591 15.22972,-15.54895 22.4687,-21.38883 30.32766,-24.46618 3.44581,-1.34927 4.66038,-1.5216 10.93836,-1.55193 6.75023,-0.0326 7.21186,0.0407 10.45198,1.66079 2.11655,1.05827 5.11399,3.39263 7.98002,6.21469 3.85792,3.79873 4.99998,5.376 7.15892,9.887 5.34603,11.17028 5.65811,18.19366 1.38071,31.07345 -3.42461,10.31195 -6.89725,18.43988 -13.75883,32.20339 -9.77631,19.6101 -18.74864,34.63451 -34.07655,57.06215 -10.63563,15.56193 -15.64956,23.29779 -21.23854,32.76836 -2.10885,3.57344 -8.07994,13.23446 -13.2691,21.46892 -13.12747,20.83144 -18.64397,30.3696 -24.10122,41.67155 -2.5895,5.36286 -4.70818,10.00814 -4.70818,10.32285 0,0.31471 -0.57203,0.80659 -1.27119,1.09307 -2.80214,1.14817 -14.11837,3.4384 -21.04519,4.25924 -9.08102,1.0761 -28.34312,1.48845 -39.26554,0.84056 z m -25.3835,-24.71437 c 5.87098,-1.22348 9.77884,-3.43111 15.52664,-8.77134 6.08756,-5.65589 7.65047,-9.80297 4.89115,-12.97839 -1.89212,-2.17746 -5.08435,-0.64053 -11.41847,5.49756 -7.03264,6.81499 -12.07141,8.9532 -21.18644,8.9905 -5.3859,0.022 -6.81548,-0.18459 -10.71966,-1.54943 -2.47774,-0.86617 -6.59196,-2.83546 -9.14274,-4.3762 -6.23413,-3.7656 -9.47465,-5.13505 -11.65288,-4.92456 -1.70009,0.16429 -1.82928,0.33039 -1.99097,2.56002 -0.15745,2.17135 0.0542,2.61149 2.37004,4.92728 4.75103,4.75103 15.15896,10.65056 20.52324,11.6332 4.00329,0.73332 17.25397,0.14714 22.80009,-1.00864 z m 60.10227,-14.48745 c 2.91327,-2.22206 3.98403,-4.98221 3.96792,-10.22838 -0.0107,-3.47762 -0.31014,-5.1695 -1.29878,-7.3376 -2.80836,-6.15875 -5.82021,-7.0245 -10.78493,-3.10012 -4.1994,3.31944 -5.91942,6.15628 -5.55656,9.16446 0.64282,5.32912 4.0297,11.68499 6.8736,12.89908 1.8021,0.76935 4.75323,0.16276 6.79875,-1.39744 z m -131.5932,0.30459 c 2.03688,-1.24214 4.92368,-6.46884 5.90661,-10.69422 1.24805,-5.36511 -0.34976,-10.27717 -4.08351,-12.55367 -2.82319,-1.72131 -5.48704,-1.46298 -8.70054,0.84377 -1.50992,1.08386 -3.71793,2.49715 -4.90669,3.14063 -2.80411,1.51788 -4.00989,4.27349 -3.60148,8.2306 0.89034,8.6266 9.36554,14.70409 15.38561,11.03289 z m 68.88433,-7.5032 c 5.83025,-1.00404 8.08419,-2.87916 7.36992,-6.13121 -0.54223,-2.46878 -1.56657,-2.97093 -5.97576,-2.92944 -2.19974,0.0207 -4.61555,-0.19658 -5.36846,-0.48283 -1.30084,-0.49458 -1.36893,-0.76005 -1.36893,-5.33672 0,-4.06295 -0.17673,-4.99297 -1.12995,-5.94618 -1.47416,-1.47416 -2.98289,-1.42964 -4.78567,0.14124 -1.82186,1.5875 -2.55109,5.60614 -2.55569,14.08394 -0.004,7.80048 0.2144,8.06818 6.16776,7.55201 2.35452,-0.20415 5.79557,-0.63201 7.64678,-0.95081 z M 320.7349,308.6945 c 4.61163,-0.9666 11.27361,-4.70757 15.72865,-8.83226 4.49924,-4.1656 5.62685,-5.95932 5.62685,-8.9508 0,-1.75308 -0.40219,-2.44392 -2.54238,-4.36705 -1.3983,-1.25649 -2.54237,-2.77038 -2.54237,-3.3642 0,-0.59382 0.90163,-2.13301 2.00362,-3.42044 2.55223,-2.98172 2.59268,-5.86466 0.099,-7.05415 -2.22935,-1.06338 -5.04022,-0.01 -8.42707,3.15797 -1.49329,1.3968 -2.71508,2.35653 -2.71508,2.13273 0,-0.2238 0.49551,-2.35605 1.10114,-4.73833 1.74332,-6.85754 2.37173,-11.66657 1.7412,-13.32499 -1.41941,-3.73334 -7.3794,0.016 -15.09636,9.49687 l -1.78923,2.19821 -2.15917,-1.71224 c -1.18754,-0.94172 -2.66704,-2.27475 -3.28777,-2.96227 -1.39772,-1.54809 -3.81016,-2.82926 -5.32749,-2.82926 -0.62973,0 -1.57811,0.66105 -2.1075,1.46901 -0.8394,1.28108 -0.87286,1.80506 -0.26157,4.09604 0.38553,1.44487 1.4484,3.79337 2.36193,5.21888 0.91354,1.42551 1.66098,2.87341 1.66098,3.21755 0,0.34415 -2.22458,2.15042 -4.9435,4.01395 -5.44129,3.7294 -9.41077,7.39062 -10.69091,9.86067 -2.44917,4.72567 3.04868,11.6843 11.69812,14.80632 6.57856,2.37453 14.12565,3.0916 19.86893,1.88779 z m -79.55777,-3.61294 c 14.13565,-1.65353 20.12231,-4.24219 20.12231,-8.70096 0,-1.96313 -3.97876,-5.59498 -12.43671,-11.35235 -7.65145,-5.20839 -13.552,-10.47239 -13.552,-12.09003 0,-0.5597 1.17119,-2.19977 2.60264,-3.64459 3.77713,-3.81243 4.21816,-5.58322 2.02618,-8.13544 -1.38163,-1.6087 -4.01645,-1.19101 -8.01865,1.27119 -5.80608,3.57196 -7.59472,3.0697 -9.87327,-2.77245 -0.77651,-1.99095 -1.83581,-4.08841 -2.35401,-4.66102 -1.19116,-1.31622 -3.71623,-1.3435 -4.84996,-0.0524 -1.55336,1.76896 -1.7006,3.56405 -0.71045,8.66171 1.48352,7.63777 0.62464,8.36754 -4.93193,4.1906 -3.75011,-2.81902 -8.64191,-4.54611 -11.34507,-4.00547 -2.08119,0.41623 -3.78841,1.84227 -3.78841,3.16442 0,1.16727 4.97302,5.92473 8.50425,8.13563 l 2.57204,1.61035 -3.07863,2.89256 c -3.50953,3.29742 -5.46533,7.01275 -4.89498,9.29871 0.98212,3.93632 6.77742,8.2542 17.28528,12.8787 10.07813,4.43537 13.49205,4.85837 26.72137,3.31085 z"
     id="path652"
     transform="scale(0.75)" />
  <path
     style="fill:#000000;stroke-width:0.564972"
     d="M 98.202223,463.50216 C 94.268336,462.3638 87.921922,452.58772 85.76926,444.35028 c -1.112452,-4.25694 -1.211823,-11.64568 -0.497687,-37.00565 0.492426,-17.48669 0.771893,-19.21491 3.383988,-20.92642 3.203434,-2.09897 24.108699,-7.02614 34.640269,-8.16439 6.37516,-0.68902 9.0968,-0.41762 11.90596,1.18722 2.41894,1.38193 3.87038,1.34579 7.24052,-0.18029 2.5632,-1.16068 3.77487,-1.26357 17.36817,-1.47491 24.26303,-0.37722 88.66697,1.34454 103.18387,2.7585 21.84047,2.12728 38.89909,2.77805 83.05085,3.16832 38.54712,0.34073 42.94979,0.17206 47.97313,-1.83788 1.44559,-0.57841 2.4382,-1.44336 2.87976,-2.50937 0.86547,-2.08944 2.50751,-3.13966 6.59217,-4.21626 9.87894,-2.60382 36.50457,-8.77758 39.23045,-9.09649 3.94276,-0.46127 6.76349,0.40287 8.6558,2.65175 3.0051,3.57136 6.53513,19.21976 6.53079,28.9506 -0.005,10.78648 -4.39955,34.77101 -7.20129,39.30145 -6.62112,10.70636 -33.64763,16.17922 -95.05629,19.24885 -26.2808,1.31369 -41.5791,2.62691 -53.10735,4.55879 -10.7099,1.79474 -25.94002,2.24185 -95.19774,2.79479 -80.29005,0.641 -106.77878,0.62724 -109.142407,-0.0567 z"
     id="path654"
     transform="scale(0.75)" />
  <path
     style="fill:#000000;stroke-width:0.0706215"
     d="m 219.00232,293.67267 c -2.86416,-1.14925 -7.26419,-3.03254 -10.26666,-4.39432 -1.83734,-0.83332 -3.3514,-1.52669 -3.36459,-1.54081 -0.025,-0.0268 4.05492,-2.55725 6.31678,-3.91783 2.63122,-1.58276 4.36253,-2.42797 5.64112,-2.75396 2.12191,-0.54099 3.04376,0.26631 3.47638,3.04442 0.11918,0.76534 0.16312,4.99613 0.0673,6.48097 -0.0941,1.45834 -0.24095,2.69043 -0.3765,3.15886 -0.0747,0.25806 -0.12464,0.32042 -0.26581,0.33173 -0.0956,0.008 -0.64823,-0.17641 -1.22803,-0.40906 z"
     id="path656"
     transform="scale(0.75)" />
  <path
     style="fill:#000000;stroke-width:0.0706215"
     d="m 227.81177,292.7824 c 0.0214,-2.90532 0.0722,-5.67965 0.11282,-6.16517 0.21607,-2.58213 0.56481,-4.23729 0.8928,-4.23729 0.8088,0 10.88371,6.92665 14.46523,9.94506 1.70694,1.43857 2.94183,2.7242 3.05819,3.18387 0.0649,0.25646 -0.13437,0.35977 -0.69399,0.35977 -0.8128,0 -5.00269,0.40244 -8.88835,0.85372 -1.10889,0.12879 -8.40588,1.20738 -8.81839,1.30348 l -0.16727,0.039 z"
     id="path658"
     transform="scale(0.75)" />
  <path
     style="fill:#000000;stroke-width:0.0706215"
     d="m 311.10325,300.5925 c -1.5563,-0.11962 -3.4312,-0.50549 -4.60607,-0.94798 -0.2719,-0.10241 -0.79626,-0.34211 -1.16526,-0.53268 -1.54512,-0.79798 -2.42934,-1.74649 -2.79243,-2.99549 -0.19142,-0.65845 -0.11719,-1.85433 0.16753,-2.69908 0.60923,-1.80756 1.8659,-3.50304 3.51309,-4.73982 1.59,-1.19383 3.24018,-1.74461 4.49017,-1.49869 0.90471,0.17799 1.46164,0.59931 2.14085,1.61957 0.80562,1.21014 1.3535,2.58983 1.69912,4.27878 0.22447,1.09692 0.44469,1.67489 0.84573,2.21968 0.83051,1.12816 1.97419,1.56154 3.72991,1.41341 0.84373,-0.0712 1.40434,-0.30005 1.80818,-0.73817 0.74313,-0.8062 0.89464,-1.61538 0.99127,-5.29406 0.0664,-2.5273 0.10948,-2.86749 0.40348,-3.18472 0.15611,-0.16844 0.21081,-0.18322 0.5744,-0.15522 0.49231,0.0379 1.06212,0.28433 2.6182,1.13221 3.49786,1.90591 4.85043,3.13379 4.84348,4.39699 -0.003,0.62135 -0.21952,1.00355 -1.0193,1.80273 -1.00258,1.00183 -2.48569,1.9447 -5.19306,3.30142 -1.99067,0.99757 -3.49638,1.54514 -5.55661,2.02073 -2.4816,0.57285 -5.11031,0.78349 -7.49268,0.60039 z"
     id="path660"
     transform="scale(0.75)" />
  <path
     style="fill:#000000;stroke-width:0.0353107"
     d="m 319.05014,282.23591 c -0.66657,-0.1754 -1.23301,-0.73189 -1.37772,-1.35352 -0.10522,-0.452 0.0665,-1.37955 0.32167,-1.73797 0.12343,-0.17335 0.25979,-0.22286 0.47879,-0.17385 0.5362,0.12 1.26487,0.85382 1.70243,1.71446 0.30896,0.60769 0.27447,1.08271 -0.10201,1.40496 -0.23346,0.19984 -0.61272,0.25393 -1.02316,0.14592 z"
     id="path662"
     transform="scale(0.75)" />
</svg>
