<?xml version="1.0" encoding="UTF-8" standalone="no"?>
<svg
   version="1"
   width="400pt"
   height="400pt"
   viewBox="0 0 400 400"
   preserveAspectRatio="xMidYMid meet"
   id="svg408"
   sodipodi:docname="rook.svg"
   inkscape:version="1.2.2 (732a01da63, 2022-12-09)"
   xmlns:inkscape="http://www.inkscape.org/namespaces/inkscape"
   xmlns:sodipodi="http://sodipodi.sourceforge.net/DTD/sodipodi-0.dtd"
   xmlns="http://www.w3.org/2000/svg"
   xmlns:svg="http://www.w3.org/2000/svg">
  <defs
     id="defs412" />
  <sodipodi:namedview
     id="namedview410"
     pagecolor="#505050"
     bordercolor="#ffffff"
     borderopacity="1"
     inkscape:showpageshadow="0"
     inkscape:pageopacity="0"
     inkscape:pagecheckerboard="1"
     inkscape:deskcolor="#505050"
     inkscape:document-units="pt"
     showgrid="false"
     inkscape:zoom="1.77"
     inkscape:cx="336.15819"
     inkscape:cy="255.64972"
     inkscape:window-width="2160"
     inkscape:window-height="1346"
     inkscape:window-x="-11"
     inkscape:window-y="-11"
     inkscape:window-maximized="1"
     inkscape:current-layer="svg408" />
  <g
     transform="matrix(0.11359209,0,0,-0.11359209,-33.146264,407.92563)"
     fill="#ffffff"
     stroke="none"
     id="g406">
    <path
       d="m 2868,3409 c -137,-20 -200,-88 -235,-253 -14,-69 -27,-96 -44,-96 -26,0 -94,82 -135,160 -39,77 -50,90 -94,114 -70,38 -132,43 -217,18 -38,-12 -85,-32 -104,-45 -43,-29 -93,-112 -121,-202 -12,-38 -26,-76 -31,-82 -16,-21 -61,-15 -109,16 -39,25 -53,44 -94,126 -27,54 -61,107 -75,117 -32,24 -114,26 -157,4 -41,-21 -86,-78 -108,-135 -49,-132 -97,-132 -156,0 -29,64 -56,81 -160,99 -46,8 -72,9 -86,1 -13,-7 -22,-7 -30,1 -6,6 -18,8 -28,4 -15,-6 -16,-20 -11,-149 7,-164 14,-196 64,-269 57,-85 84,-109 163,-146 58,-27 92,-36 148,-40 69,-4 73,-6 68,-26 -54,-193 -69,-396 -82,-1146 -6,-332 -5,-382 10,-432 9,-32 16,-92 16,-140 v -84 l -63,-13 c -34,-7 -82,-25 -106,-39 -43,-27 -44,-30 -67,-122 -25,-104 -31,-214 -12,-255 14,-32 105,-90 175,-112 46,-14 78,-15 315,-5 196,9 298,18 400,36 131,24 178,29 498,56 74,6 176,18 225,25 50,8 167,19 260,25 180,12 355,42 393,66 14,9 22,24 22,44 0,53 -30,172 -50,200 -26,36 -140,91 -202,98 l -48,5 v 53 c 0,36 15,100 45,196 58,179 63,236 54,593 -7,293 -24,450 -74,680 -35,164 -89,361 -103,378 -11,13 -1,20 70,47 115,45 152,64 181,99 46,56 59,108 55,227 -3,96 -6,116 -32,168 -16,32 -48,78 -71,102 l -42,44 -79,-1 c -43,-1 -105,-5 -136,-10 z m 230,-74 c 58,-71 77,-122 80,-222 6,-141 -31,-224 -110,-248 -13,-4 -66,-26 -118,-48 -83,-36 -108,-42 -200,-48 -156,-10 -323,-28 -430,-46 -114,-19 -690,-35 -795,-22 -38,5 -131,9 -206,9 h -136 l -74,38 c -74,37 -103,66 -148,152 -22,42 -41,145 -41,223 0,46 3,57 16,57 9,0 22,7 28,15 9,13 20,14 71,4 73,-13 84,-23 124,-103 34,-70 69,-99 114,-98 42,1 74,36 117,129 44,94 78,123 147,123 49,0 63,-16 107,-122 43,-103 125,-168 214,-168 52,0 74,26 107,125 48,146 94,194 205,219 65,15 77,15 124,2 61,-18 84,-41 119,-118 14,-32 47,-80 72,-107 106,-114 171,-85 205,90 13,67 51,129 94,155 42,25 126,42 213,43 70,1 72,0 101,-34 z m -214,-643 c 7,-15 21,-61 30,-102 9,-41 26,-102 36,-135 19,-57 56,-289 83,-510 7,-55 12,-219 11,-365 0,-286 -4,-313 -70,-530 -17,-56 -25,-109 -26,-155 0,-69 0,-70 -31,-85 -18,-8 -33,-24 -35,-35 -2,-16 -24,-28 -100,-54 -98,-35 -144,-42 -387,-61 -71,-6 -182,-19 -245,-30 -203,-34 -191,-34 -410,10 -112,23 -231,52 -265,65 -76,28 -140,68 -155,94 -5,11 -10,59 -10,106 0,48 -7,115 -16,148 -17,68 -17,236 5,847 17,500 17,501 46,628 l 28,120 371,-5 c 316,-5 384,-3 461,11 50,9 128,21 175,26 47,5 132,14 190,21 130,15 282,26 293,21 4,-2 13,-15 21,-30 z M 3150,739 c 61,-32 71,-47 90,-129 18,-84 19,-83 -72,-104 -46,-10 -168,-24 -273,-32 -104,-7 -239,-20 -300,-28 -60,-8 -202,-22 -315,-31 -113,-9 -293,-30 -400,-46 -156,-24 -242,-31 -430,-36 l -235,-6 -60,27 c -85,38 -105,60 -105,114 0,25 10,91 21,147 l 22,103 41,20 c 60,30 129,38 145,18 37,-44 201,-122 309,-147 144,-32 316,-59 384,-59 42,0 142,11 222,25 80,14 165,25 188,25 63,-1 286,29 338,45 147,44 246,85 265,110 18,24 25,26 63,21 24,-3 70,-20 102,-37 z"
       id="path398" />
    <path
       d="m 1677,2154 c -16,-16 -7,-44 14,-44 15,0 20,5 17,22 -3,22 -19,33 -31,22 z"
       id="path400" />
    <path
       d="m 2444,2055 c -4,-9 -2,-21 4,-27 15,-15 44,-1 40,19 -4,23 -36,29 -44,8 z"
       id="path402" />
    <path
       d="m 1849,1569 c -12,-7 -10,-15 9,-46 12,-21 47,-87 77,-148 75,-152 122,-225 146,-225 52,0 147,90 237,225 25,38 57,82 70,97 27,29 24,58 -6,58 -24,0 -57,-36 -120,-131 -56,-84 -148,-189 -166,-189 -13,0 -66,89 -121,200 -45,92 -86,158 -101,164 -6,2 -17,0 -25,-5 z"
       id="path404" />
  </g>
  <path
     style="fill:#000000;stroke-width:0.564972"
     d="m 243.78531,451.3252 c -1.08757,-0.13908 -10.11299,-1.88391 -20.0565,-3.87739 -23.96028,-4.80358 -41.03671,-9.12697 -48.3943,-12.2524 -11.3154,-4.80667 -18.60514,-9.99945 -19.68923,-14.02544 -0.32593,-1.21042 -0.83118,-7.35866 -1.12278,-13.66276 -0.5518,-11.92966 -1.22657,-18.1457 -2.59348,-23.89139 -2.00374,-8.42259 -2.08398,-40.75386 -0.23487,-94.63277 3.51948,-102.54979 3.7429,-106.804 6.26063,-119.20904 1.95377,-9.62636 5.7565,-25.69469 6.19826,-26.19057 0.23965,-0.26901 22.62232,-0.18532 50.34262,0.18824 56.77663,0.76511 62.56,0.58623 81.26705,-2.51354 18.73326,-3.10411 69.12858,-8.54769 84.80936,-9.16088 l 8.82066,-0.34494 1.50869,2.20294 c 1.69117,2.46939 4.11647,9.84927 6.29407,19.15208 0.8001,3.41808 2.44387,9.6469 3.65281,13.84181 2.83846,9.8492 3.99182,15.16922 6.43037,29.66102 5.77565,34.3235 8.10173,54.03519 8.80039,74.57627 1.18283,34.77592 0.49197,68.11795 -1.67461,80.81987 -1.23013,7.21183 -3.63705,16.74133 -7.34165,29.06714 -3.37097,11.21573 -4.55323,17.7766 -5.00169,27.75645 -0.26552,5.90892 -0.64053,9.1236 -1.13364,9.71775 -0.40527,0.48832 -2.13382,1.67626 -3.84123,2.63986 -1.77931,1.00418 -3.50805,2.49343 -4.05011,3.48904 -2.58036,4.73937 -4.73725,5.96407 -18.7251,10.63231 -12.03725,4.01726 -20.10317,5.33069 -46.9099,7.63864 -22.06216,1.89947 -33.23591,3.23712 -50.10953,5.99879 -11.16838,1.82791 -15.79331,2.32811 -22.77183,2.46279 -4.81638,0.0929 -9.64689,0.0552 -10.73446,-0.0839 z m 33.10185,-83.23081 c 8.37064,-4.21092 18.67231,-15.32629 31.43096,-33.9136 2.66618,-3.88418 6.39112,-9.05715 8.27767,-11.49548 3.86039,-4.98952 4.75616,-7.66486 3.15777,-9.43107 -1.32803,-1.46746 -4.3994,-1.43584 -6.83651,0.0704 -2.44972,1.514 -7.08602,7.23714 -13.964,17.23743 -9.55089,13.88655 -23.03912,29.60744 -25.40265,29.60744 -1.94396,0 -6.8696,-7.95796 -16.7853,-27.11864 -8.0431,-15.54214 -11.61011,-21.76927 -14.48228,-25.28249 -1.61657,-1.97738 -2.30528,-2.40113 -3.90257,-2.40113 -1.18932,0 -2.37871,0.43914 -3.07487,1.1353 -1.07331,1.07331 -1.08715,1.25064 -0.25348,3.24858 0.485,1.16231 1.28283,2.72632 1.77297,3.47556 0.49014,0.74925 5.16767,9.72394 10.39452,19.94375 11.01262,21.53246 15.54503,29.39559 19.36272,33.59168 2.37816,2.61387 3.01955,3.01191 4.85327,3.01191 1.21809,0 3.52699,-0.71134 5.45178,-1.67962 z M 331.6641,236.74884 c 0.76271,-0.76271 1.38675,-1.87861 1.38675,-2.47978 0,-1.50606 -1.68487,-3.36096 -3.42556,-3.77126 -3.47671,-0.81948 -5.66346,4.29397 -2.8207,6.59589 1.74504,1.41306 3.20523,1.30943 4.85951,-0.34485 z M 214.40164,223.73501 c 1.45766,-1.75638 -0.79254,-7.06834 -2.99422,-7.06834 -0.40671,0 -1.22721,0.35664 -1.82332,0.79252 -1.5096,1.10385 -1.5096,5.22071 0,6.32456 1.41921,1.03774 3.93698,1.01227 4.81754,-0.0488 z"
     id="path613"
     transform="scale(0.75)" />
  <path
     style="fill:#000000;stroke-width:0.564972"
     d="m 189.54802,134.70006 c -11.67353,-0.95789 -28.61344,-1.62939 -41.34881,-1.63905 l -13.38271,-0.0102 -8.6453,-4.55409 C 116.0571,123.16894 112.49205,120.61854 109.00095,116.21333 105.554,111.86381 101.28393,104.19995 99.792249,99.685678 95.9096,87.935615 94.048207,64.373186 96.892655,62.981201 c 0.466102,-0.228096 1.737289,-0.823594 2.824859,-1.323328 1.087566,-0.499735 2.663226,-1.460102 3.501456,-2.13415 l 1.52405,-1.225541 6.66804,1.23973 c 3.67676,0.683587 8.01708,1.89133 9.67527,2.692249 3.55671,1.717916 5.00454,3.564815 9.68516,12.354704 4.16905,7.829202 7.09617,11.60111 10.60209,13.661946 2.2739,1.33663 3.32529,1.583697 6.7394,1.583697 3.59301,0 4.31846,-0.191892 6.48992,-1.716687 3.59836,-2.526746 6.16417,-6.241832 11.49577,-16.644894 6.03177,-11.769252 8.60729,-15.116913 13.4731,-17.512345 3.14766,-1.549588 4.25872,-1.797941 8.11889,-1.814797 6.87032,-0.03 9.13447,1.61924 12.78812,9.315057 9.09102,19.148754 8.59212,18.306766 14.11652,23.824276 7.46019,7.450899 13.97506,10.497436 22.38781,10.469187 4.79044,-0.0161 7.87286,-1.405039 10.22044,-4.605378 2.21211,-3.015664 3.26673,-5.386809 6.86666,-15.438712 7.48995,-20.913739 13.77395,-27.651788 29.54561,-31.680448 8.33666,-2.129488 12.62962,-2.336468 17.98537,-0.867141 4.60657,1.263797 7.97525,2.771484 10.71905,4.797426 2.11442,1.561228 5.89238,7.324063 8.74756,13.343383 6.38979,13.471003 19.74658,26.551456 27.11419,26.553227 4.35554,0.0011 8.0568,-3.159265 10.95604,-9.354815 0.89479,-1.912118 2.63027,-7.51738 3.85663,-12.456139 3.71452,-14.959056 8.51057,-22.612184 16.57109,-26.44274 7.53246,-3.579609 17.75997,-5.405633 31.02415,-5.539067 9.96794,-0.100275 10.5577,0.171955 15.9594,7.366765 6.58272,8.767886 8.87272,14.793448 9.97178,26.238341 1.49078,15.524026 -1.27819,29.704959 -7.04636,36.087063 -2.02045,2.2355 -5.85342,4.86194 -8.19164,5.6131 -1.14072,0.36646 -7.2859,2.82869 -13.65596,5.47162 -19.49403,8.08806 -19.92276,8.19168 -40.31517,9.74375 -20.94624,1.59421 -35.87374,3.14488 -51.49274,5.34905 -15.25445,2.15272 -22.75189,2.82991 -40.67797,3.67416 -33.09977,1.55888 -73.62975,2.078 -85.59322,1.09631 z"
     id="path615"
     transform="scale(0.75)" />
  <path
     style="fill:#000000;stroke-width:0.564972"
     d="m 132.48588,490.74015 c -13.34505,-6.14999 -16.23116,-8.73027 -17.23229,-15.40628 -0.48192,-3.2137 1.22375,-15.43254 4.12795,-29.57116 l 2.0889,-10.16949 4.8015,-2.40935 c 6.7705,-3.39738 11.85062,-4.862 17.00277,-4.90198 4.19949,-0.0326 4.34314,0.0131 6.68858,2.12918 6.39181,5.76668 21.21486,13.36731 36.03668,18.47809 14.36591,4.95358 54.11246,11.8453 68.31524,11.8453 8.28003,0 17.1237,-1.05389 44.83733,-5.34323 5.12712,-0.79354 13.38983,-1.70386 18.36158,-2.02293 21.00403,-1.34794 43.67581,-4.80606 55.64972,-8.48823 18.89735,-5.81123 31.15913,-11.26241 35.56745,-15.81209 2.35103,-2.42643 3.0065,-2.79679 4.94977,-2.79679 3.90426,0 10.96599,2.17125 17.5787,5.40487 9.96592,4.87335 12.09393,7.62773 14.77397,19.12259 2.62928,11.2771 2.29083,12.57622 -3.76354,14.44622 -7.62729,2.35583 -24.68872,4.68885 -47.63742,6.51404 -16.23205,1.291 -34.94263,3.02389 -42.65537,3.95056 -13.24509,1.59137 -22.90493,2.5669 -47.45763,4.79267 -27.69958,2.51104 -41.68482,4.10115 -64.92343,7.38172 -27.04192,3.81748 -37.11825,4.57643 -74.60015,5.61893 -27.35653,0.76087 -24.30113,1.0205 -32.51031,-2.76264 z"
     id="path617"
     transform="scale(0.75)" />
</svg>
