<?xml version="1.0" encoding="UTF-8" standalone="no"?>
<svg
   version="1.0"
   width="400.000000pt"
   height="400.000000pt"
   viewBox="0 0 400.000000 400.000000"
   preserveAspectRatio="xMidYMid meet"
   id="svg23"
   sodipodi:docname="bishop.svg"
   inkscape:version="1.2.2 (732a01da63, 2022-12-09)"
   xmlns:inkscape="http://www.inkscape.org/namespaces/inkscape"
   xmlns:sodipodi="http://sodipodi.sourceforge.net/DTD/sodipodi-0.dtd"
   xmlns="http://www.w3.org/2000/svg"
   xmlns:svg="http://www.w3.org/2000/svg">
  <defs
     id="defs27" />
  <sodipodi:namedview
     id="namedview25"
     pagecolor="#505050"
     bordercolor="#ffffff"
     borderopacity="1"
     inkscape:showpageshadow="0"
     inkscape:pageopacity="0"
     inkscape:pagecheckerboard="1"
     inkscape:deskcolor="#505050"
     inkscape:document-units="pt"
     showgrid="false"
     inkscape:zoom="1.4212846"
     inkscape:cx="232.88791"
     inkscape:cy="256.45814"
     inkscape:window-width="2160"
     inkscape:window-height="1346"
     inkscape:window-x="-11"
     inkscape:window-y="-11"
     inkscape:window-maximized="1"
     inkscape:current-layer="svg23" />
  <g
     transform="matrix(0.10889023,0,0,-0.10889023,7.4596096,426.90788)"
     fill="#000000"
     stroke="none"
     id="g21">
    <path
       d="m 1875,3720 c -22,-11 -61,-39 -86,-62 -44,-41 -46,-46 -52,-110 -8,-83 -31,-129 -97,-193 -29,-27 -72,-79 -98,-115 -25,-36 -65,-86 -88,-111 -63,-69 -91,-120 -131,-237 -33,-96 -37,-118 -37,-212 -1,-123 13,-162 88,-249 71,-81 83,-111 91,-231 4,-58 13,-143 21,-189 11,-63 12,-105 4,-175 -5,-50 -14,-185 -20,-301 -14,-259 -24,-345 -50,-395 -28,-55 -121,-152 -226,-236 -156,-124 -225,-255 -179,-341 23,-43 104,-83 240,-120 96,-26 110,-27 350,-28 221,0 263,3 365,23 63,13 142,32 176,43 33,11 102,26 153,33 107,16 131,32 131,85 0,55 -34,166 -63,209 -33,46 -148,150 -251,226 -110,82 -119,105 -120,296 0,412 6,784 15,860 11,95 34,153 72,188 14,13 71,41 128,63 131,49 164,72 194,134 46,95 78,321 56,403 -17,62 -58,104 -103,105 -47,1 -219,-83 -302,-147 -84,-66 -96,-62 -48,15 48,75 89,115 170,165 176,109 216,168 160,239 -34,43 -75,55 -195,55 -159,0 -181,24 -143,155 26,92 25,120 -5,150 -29,30 -66,32 -120,5 z m 91,-45 c 4,-8 -4,-54 -16,-102 -25,-99 -19,-141 26,-184 24,-22 35,-24 159,-29 112,-4 136,-8 154,-24 46,-42 19,-78 -122,-164 -100,-62 -171,-134 -218,-226 -36,-70 -35,-91 8,-107 25,-9 71,13 171,84 37,26 103,63 147,82 91,39 110,35 133,-26 21,-59 -7,-309 -44,-381 -21,-41 -69,-71 -177,-112 -110,-42 -146,-68 -183,-132 -44,-75 -52,-171 -55,-694 -4,-512 -2,-531 47,-590 15,-17 56,-52 93,-78 88,-63 210,-174 242,-222 32,-47 58,-178 38,-190 -7,-5 -44,-11 -83,-15 -38,-4 -95,-16 -125,-27 -135,-47 -287,-69 -506,-75 -229,-6 -308,3 -466,53 -147,46 -171,94 -100,200 52,78 63,89 146,155 93,75 208,198 233,252 29,63 39,134 52,382 6,121 15,266 20,321 7,76 6,125 -5,195 -7,52 -17,137 -21,189 -9,125 -22,159 -95,247 -92,111 -109,194 -69,344 34,133 73,212 137,286 33,37 70,84 84,103 13,19 55,71 94,115 112,127 119,139 125,224 l 5,75 63,43 c 66,45 99,53 108,28 z"
       id="path19" />
  </g>
  <path
     style="fill:#ffffff;stroke-width:0.703589"
     d="m 217.26934,501.31281 c -9.3071,-0.78654 -19.56457,-2.88825 -31.13122,-6.37866 -24.93355,-7.52406 -28.31318,-13.62881 -16.93201,-30.58485 5.95397,-8.87042 8.04349,-11.12007 18.22372,-19.62022 10.51795,-8.78214 23.87024,-21.94371 30.04075,-29.61166 9.40738,-11.69032 10.94065,-19.20614 13.63591,-66.84094 0.76635,-13.54408 1.92195,-32.38268 2.56802,-41.86353 l 1.17465,-17.23793 -1.87068,-15.12716 c -1.02888,-8.31994 -2.32956,-19.93666 -2.8904,-25.81492 -1.764,-18.48885 -3.12499,-22.29356 -12.06572,-33.73026 -6.74371,-8.62633 -9.78689,-13.35255 -12.13588,-18.84766 -1.68819,-3.94926 -1.82932,-5.0647 -1.83229,-14.48089 -0.003,-8.9584 0.23732,-11.1026 1.96992,-17.58972 5.57012,-20.85539 10.32599,-30.58038 21.38321,-43.72529 3.04484,-3.61973 7.72475,-9.43085 10.39981,-12.91361 2.67506,-3.48277 8.51995,-10.5956 12.98866,-15.806295 12.29595,-14.337601 14.85818,-17.647919 16.62884,-21.483919 1.68068,-3.641049 3.10528,-12.527439 3.10528,-19.370113 v -3.928075 l 8.09396,-5.385498 c 11.27361,-7.501147 15.82101,-8.598476 16.3863,-3.954154 0.11354,0.932846 -0.75715,6.215278 -1.93487,11.738738 -2.3228,10.893846 -2.72457,18.492977 -1.17395,22.204151 1.34379,3.216117 5.27505,7.524058 7.84675,8.598582 2.64846,1.106598 6.85233,1.533151 23.67241,2.401962 9.11905,0.471027 14.01125,1.028084 15.99314,1.821078 3.41087,1.364762 6.04599,5.078604 5.32014,7.498027 -0.92672,3.089016 -6.43328,7.816684 -18.26856,15.684546 -17.77467,11.81623 -26.36844,20.43715 -33.29627,33.40144 -5.47407,10.24382 -5.59855,13.98908 -0.53932,16.22701 5.00053,2.21198 7.90566,0.99221 25.74432,-10.80915 14.33202,-9.4815 28.01226,-15.9717 33.66567,-15.9717 3.23868,0 5.19205,1.82112 6.81366,6.35233 3.23132,9.02921 -0.67921,45.12705 -6.02353,55.60279 -2.69846,5.28942 -10.9187,10.54739 -24.94799,15.95766 -16.52499,6.37271 -23.20542,11.44522 -28.04295,21.29325 -5.06592,10.31299 -5.83096,17.96682 -6.85696,68.59991 -0.88606,43.72759 -0.52001,96.8358 0.71453,103.66485 1.66049,9.1853 4.87219,13.2058 19.3711,24.2493 11.85436,9.02921 21.45842,17.41525 28.98408,25.30824 5.62559,5.90019 6.70531,7.44904 8.54079,12.25186 2.43597,6.3741 3.89794,13.98922 3.55364,18.51029 l -0.24081,3.1622 -4.22153,0.8223 c -2.32184,0.45226 -7.67079,1.34714 -11.88655,1.98861 -4.21576,0.64147 -11.18129,2.27317 -15.47896,3.626 -15.71752,4.9476 -31.4358,7.83387 -51.08465,9.38045 -13.09017,1.03033 -45.26336,1.46593 -53.96416,0.73063 z"
     id="path261"
     transform="scale(0.75)" />
</svg>
