<?xml version="1.0" encoding="UTF-8" standalone="no"?>
<svg
   version="1.0"
   width="400.000000pt"
   height="400.000000pt"
   viewBox="0 0 400.000000 400.000000"
   preserveAspectRatio="xMidYMid meet"
   id="svg238"
   sodipodi:docname="king.svg"
   inkscape:version="1.2.2 (732a01da63, 2022-12-09)"
   xmlns:inkscape="http://www.inkscape.org/namespaces/inkscape"
   xmlns:sodipodi="http://sodipodi.sourceforge.net/DTD/sodipodi-0.dtd"
   xmlns="http://www.w3.org/2000/svg"
   xmlns:svg="http://www.w3.org/2000/svg">
  <defs
     id="defs242" />
  <sodipodi:namedview
     id="namedview240"
     pagecolor="#505050"
     bordercolor="#ffffff"
     borderopacity="1"
     inkscape:showpageshadow="0"
     inkscape:pageopacity="0"
     inkscape:pagecheckerboard="1"
     inkscape:deskcolor="#505050"
     inkscape:document-units="pt"
     showgrid="false"
     inkscape:zoom="1.77"
     inkscape:cx="280.79096"
     inkscape:cy="268.64407"
     inkscape:window-width="2160"
     inkscape:window-height="1346"
     inkscape:window-x="-11"
     inkscape:window-y="-11"
     inkscape:window-maximized="1"
     inkscape:current-layer="svg238" />
  <g
     transform="matrix(0.14876658,0,0,-0.14876658,-96.192268,516.74644)"
     fill="#000000"
     stroke="none"
     id="g236">
    <path
       d="m 1900,3202 c -20,-16 -21,-21 -10,-61 6,-24 9,-54 6,-67 -6,-22 -11,-24 -71,-24 -110,0 -129,-18 -141,-139 -6,-62 -4,-74 12,-92 16,-18 26,-20 69,-14 27,3 60,9 73,12 19,4 22,1 22,-25 v -30 l -282,-6 -283,-6 -130,-42 c -218,-69 -212,-66 -229,-102 -30,-63 -15,-182 49,-392 14,-44 25,-88 25,-97 0,-9 13,-54 28,-100 16,-45 35,-107 42,-137 7,-30 22,-73 33,-95 20,-38 119,-327 114,-330 -5,-5 -144,-36 -159,-36 -9,0 -24,-9 -34,-21 -16,-16 -19,-37 -19,-126 0,-112 12,-151 53,-167 9,-4 82,-11 162,-16 191,-12 330,-27 410,-44 89,-19 509,-40 760,-39 202,1 206,1 301,32 62,21 116,32 152,32 76,0 105,13 122,55 34,79 4,187 -64,232 -29,20 -47,23 -132,23 -55,0 -99,3 -99,8 0,4 12,25 26,45 14,21 37,63 50,94 14,30 56,110 94,177 65,114 257,557 336,775 49,136 44,170 -33,210 -47,24 -187,43 -388,51 -115,6 -255,14 -310,19 -55,6 -155,10 -223,11 h -123 l 3,43 c 3,42 3,42 48,47 25,3 55,12 66,20 30,19 54,73 54,120 0,56 -29,74 -105,65 l -57,-8 7,55 c 8,64 1,73 -77,94 -72,19 -121,18 -148,-4 z m 130,-43 c 53,-11 55,-15 41,-67 -6,-18 -8,-39 -5,-47 10,-24 61,-38 114,-31 l 50,7 v -29 c 0,-49 -32,-78 -91,-85 -69,-8 -79,-19 -79,-83 v -54 h -75 -75 v 50 c 0,33 -5,52 -13,56 -7,2 -42,-2 -78,-11 -96,-22 -93,-24 -85,47 4,35 12,69 18,76 8,9 35,12 86,11 62,-1 77,1 88,16 20,28 27,78 16,119 -10,34 -9,36 13,36 13,0 47,-5 75,-11 z m 48,-451 c 9,-9 15,-9 24,0 14,14 217,15 353,2 50,-5 187,-14 305,-20 260,-12 392,-36 407,-76 7,-18 -35,-146 -85,-254 -19,-41 -49,-115 -67,-165 -53,-142 -151,-361 -199,-444 -25,-42 -65,-119 -90,-171 -25,-52 -60,-117 -78,-145 -39,-58 -5,-54 -313,-37 -215,12 -322,23 -480,49 -142,22 -425,35 -504,21 -74,-12 -72,-13 -98,77 -19,67 -70,214 -101,290 -28,71 -98,311 -152,529 -49,195 -40,236 56,256 30,6 94,25 142,42 75,27 103,31 207,34 66,2 215,7 330,12 317,13 330,13 343,0 z M 1781,1404 c 85,-16 203,-29 419,-44 80,-6 204,-15 275,-22 72,-6 188,-10 258,-9 144,3 168,-5 193,-64 16,-40 18,-98 4,-125 -8,-15 -22,-18 -82,-18 -54,0 -91,-7 -143,-26 -38,-15 -99,-31 -135,-36 -109,-15 -846,19 -975,45 -44,9 -159,20 -255,25 -246,13 -256,15 -269,53 -12,33 -14,98 -5,143 3,18 16,34 32,42 23,11 195,44 282,54 63,8 333,-5 401,-18 z"
       id="path218" />
    <path
       d="m 2313,2534 c -8,-20 -3,-24 105,-79 51,-27 103,-59 117,-73 27,-27 55,-24 55,7 0,26 -32,50 -150,110 -107,56 -118,59 -127,35 z"
       id="path220" />
    <path
       d="m 1532,2495 c -118,-41 -222,-94 -222,-115 0,-35 21,-32 123,18 96,46 160,68 217,74 17,2 26,10 28,26 3,19 -1,22 -35,22 -21,0 -71,-12 -111,-25 z"
       id="path222" />
    <path
       d="m 1571,2370 c -110,-33 -140,-56 -123,-94 6,-14 30,-37 52,-52 50,-33 253,-104 298,-104 56,0 101,25 118,66 21,50 10,88 -34,121 -20,15 -51,42 -68,60 -29,30 -37,33 -90,32 -35,0 -98,-12 -153,-29 z m 214,-50 c 11,-13 37,-34 58,-47 34,-21 38,-28 32,-51 -8,-34 -31,-52 -68,-52 -56,0 -307,97 -307,119 0,4 42,20 93,34 144,40 153,40 192,-3 z"
       id="path224" />
    <path
       d="m 1682,2278 c 2,-13 10,-23 18,-23 8,0 16,10 18,23 3,17 -2,22 -18,22 -16,0 -21,-5 -18,-22 z"
       id="path226" />
    <path
       d="m 2265,2361 c -162,-45 -255,-105 -255,-164 0,-34 37,-86 65,-93 50,-13 128,2 180,33 28,17 89,52 137,79 91,51 115,77 103,114 -7,22 -81,61 -113,59 -9,0 -62,-13 -117,-28 z m 155,-35 35,-13 -45,-28 c -24,-15 -67,-39 -95,-53 -27,-14 -70,-38 -94,-54 -61,-38 -136,-40 -153,-3 -9,21 -8,28 8,46 24,27 100,66 156,79 24,6 66,17 93,25 60,16 52,16 95,1 z"
       id="path228" />
    <path
       d="m 2203,2249 c -16,-16 -5,-39 19,-39 14,0 19,6 16,22 -4,25 -19,33 -35,17 z"
       id="path230" />
    <path
       d="m 1774,2038 c -24,-28 -44,-90 -37,-118 4,-14 17,-21 52,-25 25,-4 57,-8 71,-11 31,-5 55,9 47,29 -5,14 -49,27 -93,27 -30,0 -32,27 -4,63 11,14 20,32 20,41 0,23 -33,20 -56,-6 z"
       id="path232" />
    <path
       d="m 1663,1850 c -38,-15 -57,-56 -57,-124 1,-97 50,-168 118,-168 62,0 164,40 190,75 20,27 56,122 56,149 0,14 -58,38 -142,58 -89,21 -130,24 -165,10 z m 153,-60 c 104,-16 109,-22 75,-96 -20,-45 -65,-69 -145,-80 -38,-6 -45,-3 -64,21 -17,22 -22,41 -22,89 0,74 12,90 60,81 19,-3 62,-10 96,-15 z"
       id="path234" />
  </g>
  <path
     style="fill:#ffffff;stroke-width:0.564972"
     d="m 372.31638,413.48375 c -70.40532,-3.68708 -92.15881,-5.53495 -125.42372,-10.6542 -21.5848,-3.32175 -38.04963,-4.82495 -65.53673,-5.98333 -17.80211,-0.75023 -35.35061,-0.39347 -42.93785,0.87292 -9.45348,1.57789 -11.71474,1.08868 -13.78579,-2.98246 -0.58233,-1.14473 -2.22225,-6.02199 -3.64427,-10.83837 -4.47829,-15.16804 -12.5372,-38.49242 -20.64005,-59.73715 -7.915263,-20.75293 -29.09929,-96.73951 -33.984413,-121.90127 -1.718176,-8.8498 -2.072245,-17.26848 -0.896386,-21.31329 1.922835,-6.61432 4.879584,-8.48744 19.359918,-12.2646 5.908383,-1.54119 16.061391,-4.57383 22.562231,-6.7392 6.50085,-2.16538 12.87015,-4.21462 14.15402,-4.55387 6.02673,-1.59254 15.10623,-2.35514 37.49621,-3.14935 13.20621,-0.46846 40.4096,-1.50281 60.45198,-2.29856 20.04237,-0.79576 42.05123,-1.49447 48.90857,-1.55268 l 12.46789,-0.10585 2.3505,1.55367 c 2.66644,1.7625 3.85456,1.92345 5.20139,0.70459 2.10557,-1.90552 7.04732,-2.25913 31.07165,-2.22334 20.16412,0.03 26.01672,0.24468 41.80791,1.53326 21.8938,1.78656 29.81951,2.31198 57.34463,3.80154 11.49717,0.62218 25.35311,1.51578 30.79096,1.98577 33.66711,2.90985 50.28611,7.69006 50.28106,14.46263 -0.005,5.81842 -7.16696,26.52824 -16.39045,47.39092 -4.4894,10.15462 -8.50537,20.07945 -16.11696,39.8305 -11.67265,30.28896 -28.79807,67.58839 -40.33632,87.85311 -2.21157,3.88418 -8.11831,15.19774 -13.12611,25.14124 -9.48201,18.82754 -14.67152,28.37007 -19.0143,34.96372 -3.2761,4.97409 -5.06561,5.83563 -12.81224,6.16823 -3.10669,0.13339 -7.42818,0.14933 -9.60333,0.0354 z M 222.93771,379.08419 c 9.4433,-1.98646 20.32259,-6.62408 25.92161,-11.04985 1.88526,-1.4902 3.30251,-3.3662 4.93431,-6.53145 3.2449,-6.29423 6.22983,-14.06049 7.83275,-20.37938 1.6562,-6.52893 1.41507,-7.1807 -3.58703,-9.69537 -7.10062,-3.56964 -28.36299,-9.3452 -39.95556,-10.85324 -19.99282,-2.60079 -28.83398,6.30301 -27.80065,27.99765 0.74348,15.60939 7.16368,26.97679 17.27747,30.59096 2.7968,0.99944 10.43618,0.96003 15.3771,-0.0793 z m 26.17169,-65.20185 c 3.09487,-2.90748 0.96279,-6.47252 -4.92715,-8.2387 -2.35074,-0.7049 -10.98677,-1.88335 -14.33963,-1.95675 -1.31382,-0.0288 -2.44149,-1.82707 -2.44149,-3.89348 0,-1.42377 0.62853,-3.09911 1.94545,-5.18564 5.24003,-8.30223 5.4212,-8.67987 5.2672,-10.97874 -0.18456,-2.75508 -1.7486,-3.7795 -4.74022,-3.10478 -4.47368,1.00898 -8.25057,5.19107 -11.16449,12.36226 -1.9496,4.79798 -3.32128,11.62205 -2.87139,14.28495 0.4364,2.58307 2.79611,4.75832 5.78912,5.33661 9.05657,1.74983 18.05111,2.92888 21.69164,2.84345 3.72955,-0.0875 4.53879,-0.29283 5.79096,-1.46918 z m 56.54032,-42.98019 c 5.69344,-1.54413 10.97526,-3.979 19.37572,-8.93203 3.63714,-2.14451 11.44349,-6.64503 17.34744,-10.00116 12.48675,-7.09815 16.48394,-9.70888 20.25122,-13.22693 4.55622,-4.2548 5.82867,-8.00075 4.11275,-12.10752 -1.97267,-4.72129 -15.13456,-11.66276 -22.11403,-11.66276 -2.54744,0 -20.66562,4.39675 -30.21604,7.33255 -12.31563,3.78582 -24.56837,9.17838 -31.73084,13.96511 -5.07683,3.39287 -10.19747,8.83004 -11.47145,12.18054 -3.06892,8.0711 3.70812,20.70412 12.69016,23.65561 2.73799,0.89971 16.88624,0.11708 21.75507,-1.20341 z m -69.3325,-3.11148 c 10.1694,-2.39759 16.8876,-10.00357 17.51844,-19.83342 0.47005,-7.32435 -1.63685,-11.10569 -9.95222,-17.86173 -2.38448,-1.93733 -7.03039,-6.08568 -10.32424,-9.21857 -8.17434,-7.77485 -8.46365,-7.89661 -18.58745,-7.82317 -9.83572,0.0714 -18.42307,1.63169 -32.73595,5.94819 -13.78613,4.15764 -21.54794,8.05523 -23.47933,11.79014 -2.03706,3.93924 -0.4914,7.73436 5.35426,13.14656 6.39723,5.92285 16.81124,10.75548 39.46266,18.3127 19.19479,6.40397 24.9481,7.37726 32.74383,5.5393 z m -96.6477,-46.94769 c 1.48685,-0.49963 5.75421,-2.30687 9.48302,-4.01609 28.84422,-13.22165 36.4213,-15.93619 50.22625,-17.99394 3.31497,-0.49413 5.42347,-2.87118 5.42347,-6.11425 0,-3.25066 -0.82433,-3.73734 -6.31879,-3.73053 -9.17505,0.0114 -26.32433,5.21073 -45.04579,13.65712 -15.33549,6.91878 -22.08175,11.43644 -22.08175,14.78715 0,4.13914 2.76718,5.27434 8.31359,3.41054 z m 244.935,-2.00311 c 0.60238,-0.71189 0.9887,-2.10425 0.9887,-3.56346 0,-5.80359 -6.26566,-10.3097 -34.04849,-24.48686 -17.74031,-9.05263 -20.38604,-9.4361 -21.64579,-3.13736 -0.30102,1.50513 -0.0528,1.96623 2.00798,3.73019 1.29331,1.10703 5.82977,3.85263 10.08103,6.10135 19.32597,10.22252 27.10314,14.85164 32.2741,19.21012 4.71085,3.97068 8.188,4.69217 10.34247,2.14602 z"
     id="path295"
     transform="scale(0.75)" />
  <path
     style="fill:#ffffff;stroke-width:0.564972"
     d="m 210.15899,368.42171 c -2.30247,-1.00325 -5.21112,-4.42419 -6.99452,-8.22644 -1.40774,-3.00134 -1.46955,-3.54976 -1.46955,-13.03843 0,-8.57889 0.14623,-10.22961 1.09206,-12.32708 1.15905,-2.5703 3.22779,-4.0388 5.68966,-4.0388 1.79345,0 25.40814,3.6394 31.53426,4.85994 10.87006,2.16569 12.0199,4.50601 7.43495,15.13283 -4.44929,10.31242 -11.80742,14.89551 -28.23681,17.58759 -6.11533,1.00205 -6.85653,1.00617 -9.05005,0.0504 z"
     id="path297"
     transform="scale(0.75)" />
  <path
     style="fill:#ffffff;stroke-width:0.564972"
     d="m 286.38063,261.07504 c -2.30313,-1.07241 -3.12916,-1.84784 -4.09605,-3.84518 -1.53468,-3.17022 -1.52196,-4.34164 0.0729,-6.70818 3.41993,-5.07482 16.06039,-12.39874 27.59848,-15.99062 8.54047,-2.65871 29.50394,-8.23068 32.52338,-8.64455 1.89726,-0.26004 3.70964,0.12679 8.63974,1.84409 3.43137,1.19524 6.16057,2.40799 6.0649,2.695 -0.27324,0.81972 -15.51075,9.83822 -26.39297,15.62099 -5.43785,2.88965 -12.09804,6.62086 -14.80041,8.29158 -9.49545,5.87046 -15.75491,8.09539 -22.74767,8.08569 -2.99394,-0.004 -4.69064,-0.33765 -6.86225,-1.34882 z m 29.07175,-11.23948 c 1.06347,-0.88261 0.51784,-5.19825 -0.89811,-7.10349 -1.60741,-2.16288 -3.73981,-2.22102 -5.80262,-0.15821 -3.72984,3.72984 -0.71046,9.18722 4.52203,8.17334 0.77509,-0.15019 1.75551,-0.56043 2.1787,-0.91164 z"
     id="path299"
     transform="scale(0.75)" />
  <path
     style="fill:#ffffff;stroke-width:0.564972"
     d="m 225.15479,257.61858 c -18.0354,-4.04231 -56.19187,-19.59209 -55.22119,-22.50412 0.42876,-1.28629 11.81296,-5.08498 28.37148,-9.46703 9.37584,-2.48123 16.92245,-3.32866 20.15172,-2.26291 1.19634,0.39483 4.03561,2.6455 7.10935,5.63553 2.81465,2.73799 7.80786,6.80943 11.09603,9.04765 6.18471,4.20988 7.12313,5.21595 7.12313,7.63668 0,2.32513 -2.14443,7.36346 -3.81519,8.96377 -3.31735,3.17747 -8.86931,4.28312 -14.81533,2.95043 z m -15.01061,-15.87913 c 2.43989,-0.93628 3.56514,-7.55005 1.47488,-8.66872 -1.7943,-0.96029 -4.84397,-0.69844 -5.9374,0.50979 -1.3157,1.45383 -0.69895,5.35185 1.1373,7.1881 1.3994,1.39941 1.85882,1.53354 3.32522,0.97083 z"
     id="path301"
     transform="scale(0.75)" />
  <path
     style="fill:#ffffff;stroke-width:0.564972"
     d="m 250.93522,131.11802 c -0.20361,-4.48113 -0.69274,-9.12096 -1.08694,-10.31073 l -0.71673,-2.16322 -4.79177,0.0814 c -3.17626,0.054 -7.87393,0.76824 -13.93388,2.11865 -9.62969,2.14589 -13.07463,2.47585 -14.19121,1.35927 -1.39594,-1.39594 -0.10291,-15.2768 2.16087,-23.197433 1.0993,-3.846264 1.8816,-4.047584 17.20921,-4.428653 15.60082,-0.387862 16.87526,-0.699114 19.21583,-4.692999 3.15131,-5.377301 4.20903,-15.674008 2.33535,-22.734217 -0.5067,-1.90926 -0.92126,-4.172142 -0.92126,-5.028627 v -1.557247 l 5.79096,0.362273 c 6.4978,0.406491 17.95334,2.707817 19.93177,4.004132 1.99387,1.306438 2.11328,3.421062 0.55468,9.822887 -1.97572,8.11506 -1.9023,10.149288 0.44856,12.427835 4.69833,4.553798 14.8436,5.646595 29.06499,3.13073 l 1.83616,-0.324829 v 3.915135 c 0,11.113403 -4.99702,15.990333 -18.71488,18.265093 -7.45388,1.23604 -11.36956,2.75733 -13.04255,5.06721 -1.42461,1.96694 -2.13376,6.9797 -2.13761,15.10995 l -0.003,6.92091 H 265.62474 251.3057 Z"
     id="path303"
     transform="scale(0.75)" />
  <path
     style="fill:#ffffff;stroke-width:0.564972"
     d="m 332.60722,478.80321 c -59.81832,-1.68775 -121.84752,-5.68297 -144.47163,-9.30522 -13.06942,-2.09248 -33.48748,-4.03704 -53.38983,-5.08468 -37.452337,-1.97147 -45.298724,-3.03389 -48.242246,-6.53206 -3.209229,-3.81395 -4.873277,-15.15994 -3.790221,-25.84288 0.750113,-7.39888 1.515998,-9.43366 4.599252,-12.2192 2.72415,-2.46111 4.875312,-3.09939 22.009485,-6.53059 30.69828,-6.14746 39.89296,-7.03445 64.40678,-6.21317 25.96944,0.87005 40.98487,2.04082 54.23729,4.22896 19.15897,3.16337 37.05478,4.99743 79.9435,8.19303 16.77967,1.25024 38.00848,2.90062 47.17515,3.66751 20.89976,1.74849 39.56402,2.52711 61.29943,2.55723 18.82711,0.0261 24.0347,0.59205 28.26627,3.07191 3.26113,1.91115 6.1002,6.13062 7.99609,11.88392 1.27045,3.85534 1.49685,5.55794 1.54008,11.58192 0.043,5.99814 -0.11957,7.40262 -1.07928,9.32203 -1.86883,3.73768 -3.38017,4.15579 -17.2742,4.77894 -13.75707,0.61701 -15.02935,0.86424 -30.46591,5.92006 -17.27435,5.65775 -22.22603,6.48615 -40.46235,6.76927 -8.35306,0.12969 -22.887,0.0185 -32.29766,-0.24698 z"
     id="path305"
     transform="scale(0.75)" />
</svg>
