<?xml version="1.0" encoding="UTF-8" standalone="no"?>
<svg
   version="1.0"
   width="400.000000pt"
   height="400.000000pt"
   viewBox="0 0 400.000000 400.000000"
   preserveAspectRatio="xMidYMid meet"
   id="svg275"
   sodipodi:docname="knight.svg"
   inkscape:version="1.2.2 (732a01da63, 2022-12-09)"
   xmlns:inkscape="http://www.inkscape.org/namespaces/inkscape"
   xmlns:sodipodi="http://sodipodi.sourceforge.net/DTD/sodipodi-0.dtd"
   xmlns="http://www.w3.org/2000/svg"
   xmlns:svg="http://www.w3.org/2000/svg">
  <defs
     id="defs279" />
  <sodipodi:namedview
     id="namedview277"
     pagecolor="#505050"
     bordercolor="#ffffff"
     borderopacity="1"
     inkscape:showpageshadow="0"
     inkscape:pageopacity="0"
     inkscape:pagecheckerboard="1"
     inkscape:deskcolor="#505050"
     inkscape:document-units="pt"
     showgrid="false"
     inkscape:zoom="1.77"
     inkscape:cx="307.9096"
     inkscape:cy="250.56497"
     inkscape:window-width="2160"
     inkscape:window-height="1346"
     inkscape:window-x="-11"
     inkscape:window-y="-11"
     inkscape:window-maximized="1"
     inkscape:current-layer="svg275" />
  <g
     transform="matrix(0.1294386,0,0,-0.1294386,-49.79336,473.15759)"
     fill="#000000"
     stroke="none"
     id="g273">
    <path
       d="m 1634,3427 c -101,-55 -164,-136 -164,-212 0,-16 -17,-65 -39,-110 -21,-44 -48,-109 -61,-145 -12,-36 -41,-108 -65,-160 -23,-52 -48,-117 -54,-145 -15,-65 -41,-296 -41,-360 0,-56 -45,-315 -89,-510 -17,-71 -36,-166 -44,-210 -15,-85 -44,-165 -122,-334 -44,-96 -47,-108 -42,-162 8,-95 31,-121 162,-185 89,-44 138,-61 232,-80 237,-49 592,-56 798,-15 55,10 132,22 170,25 281,27 425,102 425,223 0,32 -7,44 -55,90 -67,63 -127,87 -253,102 -156,19 -257,70 -306,153 -62,107 -86,183 -98,316 -10,111 -9,139 6,221 35,193 79,220 216,135 41,-26 113,-64 160,-86 47,-22 136,-65 197,-95 107,-53 116,-55 175,-51 81,5 127,28 205,101 87,82 128,165 128,262 0,68 -3,77 -68,204 -37,73 -95,174 -129,225 -58,86 -188,245 -239,293 -37,34 -121,72 -253,115 -108,36 -136,41 -266,48 -160,9 -228,26 -260,67 -17,22 -20,41 -20,120 0,102 -15,154 -48,172 -34,18 -113,12 -158,-12 z m 140,-49 c 12,-17 16,-48 16,-116 0,-182 45,-215 315,-231 124,-8 154,-14 265,-50 196,-65 221,-81 323,-201 111,-131 197,-261 273,-410 50,-101 58,-122 58,-175 1,-75 -34,-151 -98,-214 -35,-35 -49,-42 -68,-38 -36,9 -186,124 -203,155 -33,64 -95,101 -95,58 0,-37 108,-152 199,-213 l 63,-43 -26,-10 c -52,-20 -101,-12 -178,29 -41,22 -110,53 -155,70 -44,17 -118,55 -164,83 -149,91 -198,104 -259,73 -38,-20 -86,-119 -101,-210 -12,-73 -7,-250 11,-343 5,-29 31,-98 58,-154 55,-116 100,-165 189,-204 51,-23 196,-54 252,-54 36,0 120,-41 164,-80 48,-42 50,-80 7,-120 -53,-49 -177,-84 -375,-105 -33,-3 -107,-15 -164,-26 -93,-19 -132,-20 -375,-17 -246,4 -282,7 -388,31 -158,35 -318,110 -342,161 -28,59 -21,100 40,229 72,153 100,237 124,369 10,59 27,135 36,170 35,137 75,382 89,549 21,245 38,332 84,431 21,47 50,116 64,156 15,39 30,79 36,89 30,57 71,167 71,191 1,115 200,248 254,170 z"
       id="path269" />
    <path
       d="m 2280,2810 c -18,-11 -4,-42 17,-38 10,2 19,10 21,19 4,19 -19,31 -38,19 z"
       id="path271" />
  </g>
  <path
     style="fill:#ffffff;stroke-width:0.564972"
     d="m 218.36158,486.90179 c -14.56001,-0.2091 -34.13323,-1.27019 -40.96045,-2.22051 -28.96283,-4.0315 -62.48711,-16.84778 -72.73918,-27.80807 -4.44062,-4.74739 -5.977543,-12.30859 -4.11084,-20.22418 0.97328,-4.1271 4.18269,-12.27779 8.20194,-20.82982 12.45062,-26.49203 16.95717,-39.95929 22.03057,-65.83552 1.61272,-8.22549 4.42166,-21.31137 6.24208,-29.07974 7.11163,-30.3477 11.98556,-60.73055 15.22603,-94.91525 2.67389,-28.20763 4.05339,-38.7319 6.51628,-49.71314 1.98783,-8.86311 4.21075,-15.1987 10.01201,-28.53545 2.6357,-6.05932 6.62405,-15.84745 8.863,-21.75141 2.23895,-5.90395 5.61264,-14.03955 7.49709,-18.0791 6.39758,-13.714018 10.32221,-24.879141 11.22013,-31.920008 0.98929,-7.757342 5.76965,-15.439236 13.81809,-22.205256 11.478,-9.649132 24.62572,-12.420715 29.01192,-6.115812 2.04287,2.9365 2.43006,5.42029 2.93708,18.840949 0.53587,14.18455 1.31079,19.540089 3.5239,24.353945 1.76289,3.834564 3.95005,6.355737 7.43643,8.572093 7.42257,4.718669 17.79107,6.817899 41.82759,8.468539 23.38237,1.60572 28.9045,2.68399 50.56498,9.87349 25.01644,8.3034 32.40832,12.206 42.48135,22.42831 14.07375,14.28234 32.69531,38.98869 45.0363,59.75239 8.50618,14.31164 17.4984,32.0104 20.53896,40.42543 1.77315,4.90735 2.00322,15.26554 0.4809,21.65099 -1.38243,5.79866 -4.01846,11.77461 -7.43167,16.84776 -2.76789,4.114 -11.76538,13.56445 -14.56141,15.2945 -3.98652,2.46665 -8.60161,0.42875 -22.13765,-9.77539 -10.92989,-8.23948 -15.51404,-12.52847 -18.92243,-17.70406 -5.04944,-7.66749 -10.84155,-12.19311 -14.12842,-11.03913 -1.52284,0.53466 -1.81599,4.33628 -0.53058,6.88052 2.96839,5.87542 14.92028,18.93586 24.16691,26.40843 2.43501,1.96783 7.84028,5.93707 12.0117,8.82055 l 7.58441,5.24268 -4.38458,1.41959 c -5.4117,1.75214 -7.92032,2.04188 -12.38995,1.43099 -5.18373,-0.70848 -7.72279,-1.69112 -21.65565,-8.38087 -6.99153,-3.35694 -16.01695,-7.43579 -20.0565,-9.06414 -9.8065,-3.953 -21.63865,-9.92944 -34.23439,-17.29185 -18.29505,-10.69374 -25.52612,-13.55944 -32.99725,-13.07691 -8.52286,0.55046 -13.41568,4.57377 -18.65133,15.33677 -3.50461,7.20448 -5.46371,12.80461 -7.1997,20.58044 -1.10671,4.95716 -1.22343,7.14045 -1.24383,23.2671 -0.0275,21.72051 1.22212,35.49007 4.02485,44.35028 3.34291,10.56792 11.61101,28.25458 17.02739,36.42409 7.7408,11.6754 17.92235,18.78221 33.16127,23.14687 8.92614,2.55658 24.36019,5.54685 31.9626,6.19259 9.30806,0.79061 17.98661,4.37146 27.67734,11.41989 10.9652,7.97542 12.40183,14.73978 4.73319,22.28619 -8.55521,8.41886 -28.70846,14.29465 -62.8635,18.32821 -8.93682,1.0554 -18.11137,2.5059 -35.59438,5.62747 -12.21671,2.18128 -24.87146,2.52863 -69.0226,1.89456 z M 332.52933,151.1734 c 1.95985,-1.95984 2.04281,-2.78338 0.48051,-4.76952 -0.84448,-1.07359 -1.69337,-1.48863 -3.04476,-1.48863 -3.97616,0 -5.8495,4.05909 -3.12892,6.77967 1.61525,1.61524 3.75217,1.41949 5.69317,-0.52152 z"
     id="path368"
     transform="scale(0.75)" />
</svg>
