<?xml version="1.0" encoding="UTF-8" standalone="no"?>
<svg
   version="1.0"
   width="401.000000pt"
   height="400.000000pt"
   viewBox="0 0 401.000000 400.000000"
   preserveAspectRatio="xMidYMid meet"
   id="svg313"
   sodipodi:docname="pawn.svg"
   inkscape:version="1.2.2 (732a01da63, 2022-12-09)"
   xmlns:inkscape="http://www.inkscape.org/namespaces/inkscape"
   xmlns:sodipodi="http://sodipodi.sourceforge.net/DTD/sodipodi-0.dtd"
   xmlns="http://www.w3.org/2000/svg"
   xmlns:svg="http://www.w3.org/2000/svg">
  <defs
     id="defs317" />
  <sodipodi:namedview
     id="namedview315"
     pagecolor="#505050"
     bordercolor="#ffffff"
     borderopacity="1"
     inkscape:showpageshadow="0"
     inkscape:pageopacity="0"
     inkscape:pagecheckerboard="1"
     inkscape:deskcolor="#505050"
     inkscape:document-units="pt"
     showgrid="false"
     inkscape:zoom="1.77"
     inkscape:cx="363.84181"
     inkscape:cy="253.38983"
     inkscape:window-width="2160"
     inkscape:window-height="1346"
     inkscape:window-x="-11"
     inkscape:window-y="-11"
     inkscape:window-maximized="1"
     inkscape:current-layer="svg313" />
  <g
     transform="matrix(0.15917742,0,0,-0.15917742,-82.815415,549.52164)"
     fill="#000000"
     stroke="none"
     id="g311">
    <path
       d="m 1677,3229 c -49,-11 -87,-32 -111,-58 -11,-12 -31,-21 -45,-21 -33,0 -99,-65 -132,-130 -39,-77 -50,-143 -33,-203 7,-29 19,-72 26,-97 12,-46 85,-128 153,-172 l 30,-19 -105,3 c -91,3 -105,1 -108,-14 -4,-21 11,-25 136,-37 57,-5 106,-11 108,-14 2,-2 0,-24 -4,-49 -5,-25 -5,-146 0,-269 5,-123 6,-237 3,-254 -3,-16 -29,-67 -58,-112 -29,-45 -86,-135 -127,-200 l -75,-118 1,-122 c 2,-153 14,-177 111,-225 61,-30 71,-32 168,-30 57,0 138,6 182,11 43,6 168,15 278,20 312,14 381,38 431,146 40,84 32,125 -48,262 -56,94 -72,108 -146,123 -102,22 -223,141 -286,281 -20,45 -25,78 -31,189 -4,74 -13,173 -21,220 -7,47 -14,91 -14,99 0,11 22,13 123,7 123,-6 155,-1 144,26 -5,14 -119,28 -232,28 -29,0 -45,5 -49,15 -3,8 -12,15 -21,15 -9,0 -18,-7 -21,-15 -4,-8 -16,-15 -27,-15 -13,0 18,26 84,68 167,109 209,154 209,224 0,54 -78,274 -114,321 -39,51 -115,91 -215,112 -80,17 -108,17 -164,4 z m 198,-65 c 64,-19 128,-57 149,-89 22,-33 96,-253 96,-285 0,-39 -22,-63 -124,-134 -181,-125 -225,-142 -285,-112 -15,8 -55,21 -89,29 -48,11 -72,24 -116,63 -47,42 -58,59 -80,124 -14,41 -26,84 -27,95 -8,59 41,174 96,225 24,23 27,23 36,7 12,-21 35,-22 46,-3 4,8 17,15 28,18 14,2 20,11 20,28 0,14 7,29 15,34 43,28 145,28 235,0 z m -278,-640 c -3,-3 -12,-4 -19,-1 -8,3 -5,6 6,6 11,1 17,-2 13,-5 z m 199,-71 112,-6 12,-76 c 6,-42 15,-146 20,-231 6,-118 13,-169 29,-211 23,-59 82,-151 135,-208 49,-53 142,-109 201,-121 l 54,-11 56,-92 c 31,-51 59,-107 62,-124 6,-37 -9,-83 -43,-130 -35,-47 -121,-64 -379,-74 -115,-4 -239,-13 -275,-18 -36,-6 -108,-11 -160,-11 -79,0 -103,4 -145,24 -78,36 -84,47 -91,167 l -6,104 57,94 c 31,52 68,110 83,129 47,62 122,196 128,230 4,19 1,128 -6,243 -7,115 -9,226 -6,247 16,90 17,94 34,87 10,-4 67,-9 128,-12 z"
       id="path303" />
    <path
       d="m 1634,2935 c -4,-9 -2,-21 4,-27 15,-15 44,-1 40,19 -4,23 -36,29 -44,8 z"
       id="path305" />
    <path
       d="m 1747,2944 c -16,-16 -7,-44 14,-44 15,0 20,5 17,22 -3,22 -19,33 -31,22 z"
       id="path307" />
    <path
       d="m 1695,2791 c -31,-6 -46,-35 -23,-44 8,-2 46,-2 86,1 67,4 73,6 70,26 -3,18 -10,21 -53,23 -27,0 -63,-2 -80,-6 z"
       id="path309" />
  </g>
  <path
     style="fill:#ffffff;stroke-width:0.564972"
     d="m 257.06215,194.10484 c -1.55368,-0.5808 -5.17298,-1.97446 -8.04291,-3.097 -2.86992,-1.12255 -9.05136,-3.06227 -13.73652,-4.31049 -4.68517,-1.24821 -10.15186,-3.04121 -12.1482,-3.98444 -6.45989,-3.05215 -19.30446,-14.01029 -23.3639,-19.93253 -3.62289,-5.28536 -7.29075,-14.71161 -11.11095,-28.55465 -2.15161,-7.79667 -2.42033,-12.08521 -1.13565,-18.12404 3.08009,-14.4784 13.84534,-33.362797 22.39727,-39.289291 l 2.39478,-1.659585 1.1866,1.65924 c 2.31624,3.238845 3.77955,4.261392 6.09826,4.261392 1.88359,0 2.60404,-0.399747 4.95193,-2.747644 1.85264,-1.85264 3.60287,-3.000161 5.37316,-3.522866 3.45915,-1.021364 4.23037,-1.989212 4.80079,-6.02481 0.67088,-4.746227 1.82843,-6.667215 4.97545,-8.256851 9.33198,-4.713821 28.92668,-4.501024 46.17345,0.501439 14.27759,4.141249 28.58843,12.528327 32.92938,19.298748 2.54097,3.963057 6.29285,13.583658 12.30126,31.542948 8.17897,24.44715 9.2031,29.77209 6.72881,34.98627 -2.58397,5.44531 -13.03971,14.09214 -33.78218,27.93763 -28.0693,18.73612 -37.82064,22.7446 -46.99083,19.31653 z m 15.81921,-45.25844 c 4.24945,-0.80946 4.80226,-1.27422 4.80226,-4.03747 0,-4.32585 -1.55848,-5.31582 -9.27682,-5.89284 -5.77166,-0.43149 -18.33823,0.63461 -21.10531,1.79049 -3.20199,1.33755 -5.21109,3.52992 -5.21109,5.68645 0,3.71053 0.44228,3.81413 14.67205,3.4367 7.00099,-0.1857 14.2545,-0.62819 16.11891,-0.98333 z m -29.64971,-32.46807 c 3.14001,-1.62376 3.70311,-4.78247 1.3509,-7.57792 -1.22259,-1.45296 -1.86808,-1.73826 -3.9328,-1.73826 -3.18033,0 -4.77404,1.55679 -4.77404,4.66344 0,2.66389 0.79583,4.27546 2.43806,4.93713 1.83206,0.73816 3.08005,0.66599 4.91788,-0.28439 z m 23.90766,-0.84228 c 1.04762,-2.99631 -1.92405,-9.03887 -4.44523,-9.03887 -0.50413,0 -1.65975,0.74315 -2.56805,1.65145 -2.21295,2.21295 -2.31683,5.64413 -0.23396,7.72701 1.18297,1.18296 1.85891,1.38904 4.08533,1.2455 2.26267,-0.14587 2.74287,-0.3866 3.16191,-1.58509 z"
     id="path342"
     transform="scale(0.75)" />
  <path
     style="fill:#ffffff;stroke-width:0.564972"
     d="m 221.08958,490.09781 c -8.43307,-0.64172 -12.97205,-1.99044 -22.19822,-6.596 -12.1673,-6.07373 -13.75988,-9.61227 -15.26125,-33.90897 -0.45659,-7.38905 -0.96678,-15.15728 -1.13374,-17.26272 l -0.30357,-3.82807 9.14801,-15.09849 c 9.39794,-15.51096 16.30743,-26.24257 23.90751,-37.13237 7.54911,-10.81677 18.22583,-29.53442 22.07517,-38.70057 0.96353,-2.29438 1.70249,-5.36823 1.96939,-8.19209 0.48324,-5.11275 -0.19326,-28.39822 -1.46083,-50.28248 -0.46796,-8.0791 -0.9945,-22.69774 -1.1701,-32.48588 l -0.31927,-17.79661 1.68064,-8.19209 c 2.14202,-10.44102 2.56164,-11.5411 4.21839,-11.05891 3.12108,0.90839 15.67209,2.03762 32.05208,2.88377 9.78813,0.50562 18.30774,1.01601 18.93245,1.13419 0.98792,0.18689 1.26978,1.08244 2.16423,6.8765 2.41195,15.62395 4.07286,32.92722 5.73709,59.76897 2.16596,34.93365 3.68996,41.34942 13.93742,58.67403 8.61312,14.56153 18.36466,27.14957 26.35361,34.01925 8.57746,7.37574 22.88673,15.91191 31.53888,18.81446 1.82254,0.61142 6.3302,1.74642 10.01702,2.52222 3.68682,0.7758 6.9061,1.62287 7.15396,1.88238 0.70173,0.73474 12.16027,19.62606 15.53561,25.61308 4.80259,8.5186 8.69514,16.98054 9.29364,20.20326 1.15217,6.20406 -2.03525,16.36481 -7.79372,24.84453 -2.74014,4.03503 -4.83403,5.88573 -9.08432,8.02925 -10.65525,5.37366 -26.33598,7.37682 -75.48079,9.6424 -28.49219,1.31349 -44.06827,2.38582 -57.34463,3.9479 -16.42669,1.93272 -32.70058,2.55144 -44.16466,1.67906 z"
     id="path344"
     transform="scale(0.75)" />
</svg>
