<?xml version="1.0" encoding="UTF-8" standalone="no"?>
<svg
   version="1.0"
   width="400.000000pt"
   height="400.000000pt"
   viewBox="0 0 400.000000 400.000000"
   preserveAspectRatio="xMidYMid meet"
   id="svg365"
   sodipodi:docname="queen.svg"
   inkscape:version="1.2.2 (732a01da63, 2022-12-09)"
   xmlns:inkscape="http://www.inkscape.org/namespaces/inkscape"
   xmlns:sodipodi="http://sodipodi.sourceforge.net/DTD/sodipodi-0.dtd"
   xmlns="http://www.w3.org/2000/svg"
   xmlns:svg="http://www.w3.org/2000/svg">
  <defs
     id="defs369" />
  <sodipodi:namedview
     id="namedview367"
     pagecolor="#505050"
     bordercolor="#ffffff"
     borderopacity="1"
     inkscape:showpageshadow="0"
     inkscape:pageopacity="0"
     inkscape:pagecheckerboard="1"
     inkscape:deskcolor="#505050"
     inkscape:document-units="pt"
     showgrid="false"
     inkscape:zoom="2.503158"
     inkscape:cx="236.90075"
     inkscape:cy="273.05508"
     inkscape:window-width="2160"
     inkscape:window-height="1346"
     inkscape:window-x="-11"
     inkscape:window-y="-11"
     inkscape:window-maximized="1"
     inkscape:current-layer="svg365" />
  <g
     transform="matrix(0.12713838,0,0,-0.12713838,-51.65729,460.92628)"
     fill="#000000"
     stroke="none"
     id="g363">
    <path
       d="m 1615,3125 c -47,-17 -80,-54 -98,-110 -16,-54 -11,-478 8,-648 8,-71 15,-134 15,-140 0,-24 -55,65 -121,197 -88,176 -132,237 -257,358 -114,111 -149,127 -233,109 -117,-25 -185,-71 -228,-151 -28,-51 -31,-67 -31,-141 0,-217 145,-559 462,-1093 16,-27 27,-50 26,-52 -2,-1 -33,-8 -68,-13 -36,-6 -94,-19 -129,-28 -98,-27 -100,-33 -103,-243 l -3,-176 30,-59 c 56,-109 -3,-100 685,-96 333,1 616,7 637,13 21,5 135,15 253,23 373,25 515,46 601,90 39,21 67,80 85,178 28,162 10,300 -45,349 -39,35 -58,35 -223,-1 -73,-16 -157,-32 -186,-36 l -52,-7 11,29 c 15,42 54,107 124,208 34,50 83,126 108,170 25,44 85,132 132,195 102,136 279,478 296,570 37,204 -109,376 -281,330 -70,-19 -138,-69 -256,-192 -126,-130 -157,-172 -231,-313 l -53,-100 v 130 c 0,72 7,168 15,215 40,225 0,346 -125,380 -110,30 -173,-69 -266,-422 -25,-95 -49,-193 -54,-218 l -8,-45 -1,40 c -2,57 -67,374 -89,432 -21,56 -76,144 -122,197 -61,69 -152,98 -225,71 z m 130,-68 c 44,-25 100,-93 144,-177 32,-60 69,-213 101,-416 22,-138 41,-194 65,-194 19,0 41,44 50,100 15,99 99,411 136,506 43,111 67,144 105,144 34,0 78,-24 97,-54 28,-42 30,-96 8,-249 -22,-156 -28,-377 -11,-421 13,-36 51,-34 83,4 14,16 47,72 72,124 52,105 135,214 253,333 98,99 149,134 206,140 62,7 90,-2 136,-43 40,-37 70,-106 70,-164 0,-95 -139,-381 -292,-598 -48,-69 -105,-155 -125,-191 -20,-35 -70,-116 -111,-179 -41,-64 -92,-151 -113,-196 l -37,-80 -59,-14 c -97,-22 -245,-25 -418,-7 -98,10 -300,19 -521,22 l -360,6 -36,56 c -20,31 -67,115 -104,186 -37,72 -88,166 -115,210 -50,85 -166,337 -192,420 -80,249 -75,380 15,449 48,36 132,66 185,66 44,0 49,-3 140,-92 104,-102 170,-195 258,-365 72,-138 147,-243 175,-243 32,0 43,36 36,114 -14,146 -32,616 -26,684 4,40 14,82 24,97 32,49 97,58 161,22 z M 3074,1448 c 18,-29 36,-116 36,-171 0,-51 -26,-201 -39,-225 -38,-71 -198,-103 -616,-122 -104,-5 -222,-15 -260,-24 -57,-12 -171,-15 -580,-17 -281,-2 -539,-3 -573,-3 -59,-1 -66,1 -88,29 -43,54 -58,118 -49,214 4,47 7,114 6,148 -3,72 -4,71 104,97 97,24 172,31 190,16 13,-11 20,-11 40,0 20,11 92,12 357,6 183,-3 356,-11 383,-16 65,-13 623,-25 699,-16 45,6 59,12 63,26 4,14 21,22 62,30 31,7 88,20 126,30 95,25 121,25 139,-2 z"
       id="path349" />
    <path
       d="m 1673,2119 c -7,-7 -8,-23 -2,-47 11,-50 3,-57 -33,-27 -32,27 -78,31 -85,8 -2,-6 12,-22 31,-36 l 36,-24 -25,-23 c -47,-44 -29,-74 70,-120 66,-29 75,-31 145,-25 106,10 146,28 133,62 -3,7 -36,34 -75,59 -81,54 -90,70 -58,94 15,11 21,23 17,34 -8,20 -27,21 -53,1 -30,-23 -49,-18 -59,17 -11,35 -25,44 -42,27 z m 37,-189 c 0,-22 -2,-40 -4,-40 -2,0 -23,9 -47,19 l -42,19 34,21 c 49,30 59,27 59,-19 z m 107,-10 c 31,-22 49,-40 41,-40 -8,0 -36,-3 -62,-6 l -46,-7 v 47 c 0,25 3,46 6,46 3,0 31,-18 61,-40 z"
       id="path351" />
    <path
       d="m 2291,2059 -34,-40 -28,27 c -42,41 -67,11 -33,-41 15,-23 14,-24 -13,-41 -46,-29 -73,-56 -73,-75 0,-58 118,-105 201,-80 45,14 104,62 112,91 4,14 -1,25 -14,33 -23,14 -24,24 -4,44 9,8 14,20 12,27 -7,20 -35,18 -58,-5 l -22,-22 7,29 c 19,76 19,94 0,93 -11,0 -34,-18 -53,-40 z m 4,-89 c 3,-5 1,-10 -4,-10 -6,0 -11,5 -11,10 0,6 2,10 4,10 3,0 8,-4 11,-10 z m -33,-73 c 2,-14 10,-22 23,-22 16,0 20,7 20,31 0,30 0,30 27,15 35,-20 32,-31 -16,-55 -53,-26 -126,-15 -126,18 0,28 39,59 57,44 6,-5 13,-19 15,-31 z"
       id="path353" />
    <path
       d="m 1983,1803 c -4,-10 -7,-40 -8,-68 0,-49 0,-50 30,-48 71,4 96,14 93,37 -2,17 -9,21 -40,20 -36,-1 -37,-1 -35,35 2,27 -2,36 -16,39 -10,2 -20,-4 -24,-15 z"
       id="path355" />
    <path
       d="m 1608,1777 c -7,-7 -21,-16 -30,-20 -27,-10 -24,-68 5,-95 44,-41 84,-21 101,52 13,54 -40,98 -76,63 z"
       id="path357" />
    <path
       d="m 2370,1761 c -26,-25 -28,-32 -20,-61 17,-61 51,-78 83,-42 20,22 22,61 6,96 -17,37 -37,39 -69,7 z"
       id="path359" />
    <path
       d="m 2130,1661 c -63,-70 -164,-78 -250,-21 -54,36 -83,39 -78,9 2,-13 25,-35 62,-57 53,-33 64,-36 130,-36 39,1 85,8 103,15 51,23 105,77 101,102 -5,34 -30,29 -68,-12 z"
       id="path361" />
  </g>
  <path
     style="fill:#ffffff;stroke-width:0.564972"
     d="m 307.62712,374.28896 c -4.50565,-0.26727 -12.51413,-0.88162 -17.79661,-1.36523 -26.85004,-2.45813 -46.4426,-3.15541 -129.50872,-4.6091 l -21.59912,-0.378 -4.14377,-6.56718 c -6.48866,-10.28346 -9.41848,-15.54429 -25.83945,-46.3977 -2.89417,-5.43785 -7.61262,-13.97933 -10.485456,-18.98105 -8.624623,-15.01581 -20.410455,-39.31011 -28.889361,-59.55002 -6.478906,-15.46574 -11.692524,-32.8331 -14.331405,-47.74012 -1.575974,-8.90266 -1.732417,-21.52583 -0.33259,-26.83615 3.361465,-12.75192 11.395737,-20.03988 28.431424,-25.79041 5.094501,-1.71969 7.15513,-2.11524 12.164712,-2.33512 5.342856,-0.23451 6.317516,-0.12614 8.539426,0.94947 3.21307,1.55542 17.59628,14.92424 25.2045,23.42693 13.11506,14.65693 20.01615,25.02944 34.63302,52.05421 7.95679,14.71111 12.10253,21.66983 17.39973,29.20579 4.38947,6.2446 9.96463,12.10489 12.00253,12.61638 2.24221,0.56275 4.50088,-0.82924 5.98188,-3.68658 1.27895,-2.46752 1.30881,-2.85007 1.01432,-12.99435 -0.16688,-5.74858 -0.55756,-13.75706 -0.86819,-17.79661 -1.43859,-18.70866 -3.44193,-70.58353 -3.4364,-88.98305 0.004,-12.82719 0.41466,-16.94717 2.35104,-23.57908 3.31157,-11.34185 14.75084,-15.162258 27.14661,-9.066245 7.29884,3.589434 17.96851,16.119295 25.01203,29.372705 6.07819,11.43703 11.10245,31.31369 17.52831,69.34447 3.99043,23.61693 6.42653,32.10816 9.94347,34.65872 1.38282,1.00285 1.59052,1.01351 3.22962,0.1659 2.98758,-1.54494 5.34313,-7.42555 7.71401,-19.25805 2.72649,-13.60721 7.92585,-34.44261 13.32315,-53.38983 9.14559,-32.10561 15.99272,-48.35452 22.07119,-52.37705 1.87063,-1.23793 2.63519,-1.39818 5.73054,-1.20108 9.21872,0.587 16.69046,7.71534 18.55522,17.70242 0.85062,4.55568 0.31978,14.84661 -1.48629,28.81356 -4.54918,35.18027 -5.43124,68.58085 -2.01507,76.30368 2.19521,4.96263 7.31524,5.24872 12.26588,0.68537 3.09253,-2.85059 6.85543,-8.88765 13.9346,-22.35617 10.75163,-20.45555 21.93333,-35.26819 41.82277,-55.40353 14.72069,-14.90269 21.87779,-20.62511 29.5568,-23.63199 3.44581,-1.34927 4.66038,-1.5216 10.93836,-1.55193 6.69811,-0.0324 7.23612,0.0512 10.4372,1.6204 2.17826,1.06784 5.00796,3.27155 7.98002,6.21469 3.83485,3.79754 5.0388,5.45776 7.19905,9.92739 6.52823,13.50718 5.67784,22.78155 -4.20909,45.90432 -9.95094,23.27245 -21.95494,44.31791 -43.74537,76.69455 -7.2151,10.72034 -16.4174,24.95763 -20.44954,31.63842 -4.03215,6.68079 -10.2456,16.72317 -13.80766,22.31639 -12.47339,19.58593 -20.18511,33.32435 -26.06125,46.42811 -1.19992,2.67582 -2.49157,4.74585 -3.06918,4.91877 -4.21472,1.26174 -14.87789,3.32214 -20.87587,4.03377 -8.98509,1.06602 -28.28077,1.47459 -39.16102,0.82921 z m -25.3835,-24.7246 c 5.64185,-1.16381 9.64427,-3.34984 14.875,-8.12441 4.7925,-4.37455 6.70778,-7.25725 6.70778,-10.09594 0,-2.60487 -1.38049,-4.50785 -3.27015,-4.50785 -1.70896,0 -4.94719,2.25527 -9.31331,6.48626 -7.01996,6.8027 -12.06167,8.94587 -21.18644,9.00607 -7.71527,0.0509 -11.65546,-1.12484 -19.77401,-5.90052 -7.03003,-4.13537 -9.51543,-5.1823 -11.78047,-4.96231 -1.6545,0.16068 -1.79094,0.33944 -1.95177,2.55709 -0.1565,2.15821 0.0578,2.61449 2.25989,4.8112 4.71569,4.70421 15.37976,10.79708 20.54185,11.73651 4.04853,0.73678 17.25676,0.15627 22.89163,-1.0061 z m 60.10227,-14.47722 c 2.91327,-2.22206 3.98403,-4.98221 3.96792,-10.22838 -0.0107,-3.47762 -0.31014,-5.1695 -1.29878,-7.3376 -2.86968,-6.29323 -5.8366,-7.05983 -11.01077,-2.84497 -3.64357,2.96802 -5.47319,5.67739 -5.47319,8.10491 0,1.98328 2.19572,8.37794 3.62651,10.5616 2.47122,3.77157 6.60308,4.47902 10.18831,1.74444 z m -131.61762,0.22742 c 3.50963,-2.16907 7.03237,-11.15804 6.26166,-15.97785 -1.08212,-6.76717 -7.48226,-10.38633 -12.24537,-6.92452 -1.05583,0.76737 -3.28469,2.20702 -4.95301,3.19921 -3.71552,2.20968 -4.86473,4.48175 -4.42447,8.74744 0.89624,8.68373 9.31832,14.69043 15.36119,10.95572 z m 68.90875,-7.43523 c 5.79975,-0.98295 8.15989,-3.05664 7.31412,-6.42644 -0.54045,-2.15331 -1.62145,-2.63172 -5.85706,-2.59207 -2.18726,0.0205 -4.6121,-0.20429 -5.38856,-0.4995 -1.35329,-0.51452 -1.41173,-0.73614 -1.41173,-5.35299 0,-4.06295 -0.17673,-4.99297 -1.12995,-5.94618 -1.47416,-1.47416 -2.98289,-1.42964 -4.78567,0.14124 -1.82186,1.5875 -2.55109,5.60614 -2.55569,14.08394 -0.004,7.78365 0.19724,8.03014 6.15115,7.5262 2.36365,-0.20007 5.81218,-0.62045 7.66339,-0.9342 z M 320.7349,308.6945 c 4.42868,-0.92825 11.19668,-4.66401 15.35829,-8.47738 4.46189,-4.08852 5.99721,-6.4589 5.99721,-9.25918 0,-1.80819 -0.38313,-2.47329 -2.54238,-4.41355 -1.3983,-1.25649 -2.54237,-2.77038 -2.54237,-3.3642 0,-0.59382 0.90163,-2.13301 2.00362,-3.42044 2.55223,-2.98172 2.59268,-5.86466 0.099,-7.05415 -2.22935,-1.06338 -5.04022,-0.01 -8.42707,3.15797 -1.49329,1.3968 -2.71508,2.35653 -2.71508,2.13273 0,-0.2238 0.49551,-2.35605 1.10114,-4.73833 2.65752,-10.45361 2.61971,-14.78339 -0.12909,-14.78339 -2.22662,0 -6.23698,3.02283 -10.58417,7.97789 -2.28426,2.60369 -4.32526,4.80677 -4.53554,4.89575 -0.21029,0.089 -2.04799,-1.34769 -4.08377,-3.1926 -4.39723,-3.98495 -6.86835,-4.83716 -8.43086,-2.90754 -1.50515,1.85878 -1.27186,3.416 1.23856,8.26728 1.24294,2.40192 2.25989,4.56265 2.25989,4.80162 0,0.23898 -2.25804,1.98107 -5.01786,3.87131 -5.61415,3.8452 -10.55649,8.72979 -11.12503,10.99503 -0.8826,3.51657 3.3208,9.41362 8.60085,12.06632 7.03049,3.53214 16.45791,4.91559 23.47468,3.44486 z m -75.53716,-4.11073 c 11.37916,-1.76487 16.1017,-4.17081 16.1017,-8.20317 0,-1.92004 -3.96373,-5.59923 -11.58324,-10.75172 -10.34452,-6.9952 -14.39115,-10.65141 -14.40174,-13.01224 -0.002,-0.45633 1.30983,-2.15978 2.9153,-3.78543 3.22326,-3.26381 3.77123,-5.44557 1.88983,-7.52448 -1.59296,-1.7602 -4.06236,-1.42207 -8.19869,1.12265 -5.80608,3.57196 -7.59472,3.0697 -9.87327,-2.77245 -0.77651,-1.99095 -1.83581,-4.08841 -2.35401,-4.66102 -1.19116,-1.31622 -3.71623,-1.3435 -4.84996,-0.0524 -1.52147,1.73264 -1.65316,3.36921 -0.69198,8.5994 0.51622,2.80903 0.79279,5.4873 0.61458,5.95171 -0.54678,1.42488 -2.18807,0.92662 -5.71199,-1.73405 -3.73114,-2.81714 -8.50347,-4.50914 -11.19806,-3.97022 -1.96639,0.39327 -3.78841,1.82482 -3.78841,2.97651 0,1.24984 4.3311,5.58546 7.86613,7.87435 l 3.27382,2.11975 -3.25133,3.01015 c -3.63195,3.36255 -5.33148,6.7069 -4.75111,9.34929 0.76401,3.47855 7.17794,8.18095 17.25342,12.64943 8.4299,3.73867 10.64085,4.20053 18.59212,3.88384 3.88418,-0.1547 9.35028,-0.63615 12.14689,-1.06989 z"
     id="path399"
     transform="scale(0.75)" />
  <path
     style="fill:#ffffff;stroke-width:0.564972"
     d="m 98.202223,463.50216 c -3.926874,-1.13632 -10.253905,-10.87286 -12.445342,-19.15188 -1.14702,-4.33331 -1.229669,-11.85556 -0.41798,-38.04211 l 0.539977,-17.42064 1.80778,-1.61525 c 3.729675,-3.33247 28.885332,-9.08385 40.376522,-9.23136 4.84088,-0.0621 5.6601,0.0746 7.18051,1.19871 2.16201,1.59844 3.72985,1.59793 7.19862,-0.002 l 2.75543,-1.27121 31.07345,0.0743 c 39.35293,0.0941 80.54032,1.44303 92.60949,3.03297 19.71243,2.59683 115.28671,3.8219 122.9137,1.5755 2.03103,-0.5982 3.52436,-1.462 4.34712,-2.51453 2.79243,-3.57227 3.41212,-3.97692 7.84048,-5.11967 12.03363,-3.10532 35.92218,-8.63151 38.73873,-8.96151 3.94271,-0.46194 6.76317,0.40194 8.6558,2.65121 2.9652,3.52394 6.53309,19.19317 6.53309,28.69158 0,6.14965 -1.2515,15.95392 -3.4189,26.7835 -2.33999,11.69202 -3.50912,14.14397 -8.32341,17.45629 -11.38324,7.83188 -36.56866,11.75732 -95.31983,14.85675 -24.89569,1.31337 -37.21957,2.40104 -48.30509,4.26328 -10.81906,1.81748 -25.659,2.25485 -95.19774,2.80569 -80.79325,0.63999 -106.77451,0.62586 -109.142407,-0.0593 z"
     id="path401"
     transform="scale(0.75)" />
  <path
     style="fill:#ffffff;stroke-width:0.564972"
     d="m 228.08275,290.46969 c 0.15153,-3.93353 0.44496,-7.32132 0.65207,-7.52843 0.48075,-0.48075 10.95627,6.65297 14.6795,9.99659 l 2.83101,2.54238 -5.60854,0.63713 c -3.0847,0.35042 -7.23327,0.83221 -9.21905,1.07066 l -3.6105,0.43353 z"
     id="path407"
     transform="scale(0.75)" />
  <path
     style="fill:#ffffff;stroke-width:0.564972"
     d="m 212.25854,290.55765 -6.38553,-2.85732 4.91846,-3.00509 c 8.69551,-5.31279 9.83,-4.90327 9.83,3.54834 0,4.64889 -0.11474,5.25415 -0.9887,5.21532 -0.54379,-0.0242 -3.86219,-1.32973 -7.37423,-2.90125 z"
     id="path409"
     transform="scale(0.75)" />
  <path
     style="fill:#ffffff;stroke-width:0.564972"
     d="m 307.29371,299.67381 c -0.96021,-0.27872 -2.45093,-1.16023 -3.31271,-1.9589 -1.29919,-1.20405 -1.50655,-1.7603 -1.21375,-3.25584 0.44544,-2.27513 1.89686,-4.27157 4.28915,-5.89975 3.48009,-2.36852 5.56079,-1.17181 7.08628,4.07566 0.97116,3.3407 1.97857,4.25768 4.67755,4.25768 2.31697,0 3.01474,-1.11492 3.35564,-5.36174 0.16237,-2.0228 0.5438,-3.67781 0.84762,-3.67781 1.12963,0 6.17228,3.08548 6.72231,4.11323 0.70876,1.32431 -0.45179,2.73666 -3.91788,4.76792 -5.2955,3.10337 -13.49159,4.40328 -18.53421,2.93955 z"
     id="path411"
     transform="scale(0.75)" />
  <path
     style="fill:#ffffff;stroke-width:0.0706215"
     d="m 319.17373,282.24096 c -0.40572,-0.0877 -0.61252,-0.19365 -0.9195,-0.47098 -0.47282,-0.42717 -0.5848,-0.71947 -0.55049,-1.43699 0.0389,-0.81334 0.25985,-1.29647 0.60826,-1.32995 0.50378,-0.0484 1.32739,0.69157 1.8066,1.62317 0.29147,0.5666 0.3233,0.90047 0.11797,1.23722 -0.21228,0.34813 -0.58556,0.48073 -1.06284,0.37753 z"
     id="path413"
     transform="scale(0.75)" />
  <path
     style="fill:#ffffff;stroke-width:0.0706215"
     d="m 208.29802,342.52638 v -6.16712 l 0.80255,-0.26399 c 0.44139,-0.14519 1.06154,-0.41027 1.37811,-0.58905 1.39943,-0.79039 2.74715,-2.44909 4.00335,-4.92712 1.17015,-2.30831 2.01838,-4.8613 2.44318,-7.35347 0.2254,-1.32232 0.22694,-3.4361 0.003,-4.44032 -0.46977,-2.10888 -1.34108,-3.79921 -2.67703,-5.19342 -1.52769,-1.59431 -3.23898,-2.42522 -5.19423,-2.52204 l -0.75918,-0.0376 v -6.09876 c 0,-3.35431 0.0254,-6.09875 0.0565,-6.09875 0.0311,0 0.0867,0.029 0.12359,0.0645 0.14447,0.13899 3.83684,1.94371 5.57556,2.72518 8.04682,3.61663 10.50826,4.21696 16.84322,4.108 5.19411,-0.0893 11.14112,-0.59533 15.55045,-1.32307 8.57508,-1.41529 13.08203,-3.29835 14.42001,-6.02487 0.30626,-0.6241 0.49892,-1.53711 0.44645,-2.11577 -0.0844,-0.93019 -0.90591,-2.11741 -2.59851,-3.75502 -2.01038,-1.94508 -4.60948,-3.93635 -9.49213,-7.27228 -9.5708,-6.53899 -13.38956,-9.92214 -13.82152,-12.24492 -0.0735,-0.39513 -0.068,-0.42521 0.15247,-0.8389 0.3221,-0.60432 1.23982,-1.73686 2.46051,-3.03646 1.61079,-1.71493 2.2556,-2.53239 2.71596,-3.44321 0.66312,-1.31196 0.63213,-2.68316 -0.0849,-3.75693 -0.40728,-0.60991 -1.04888,-1.18976 -1.60701,-1.45236 -0.42616,-0.20051 -0.56327,-0.22851 -1.23571,-0.25242 -1.58741,-0.0564 -3.07889,0.50035 -6.02379,2.24872 -4.08842,2.42727 -5.80177,2.74189 -7.32708,1.34546 -0.77248,-0.70721 -1.41513,-1.84408 -2.3793,-4.20908 -0.6805,-1.66916 -1.72413,-3.79512 -2.13052,-4.34006 -0.3604,-0.48325 -0.77969,-0.80906 -1.35106,-1.04983 -0.40339,-0.16999 -0.52377,-0.18605 -1.39488,-0.18605 -0.92388,0 -0.96799,0.007 -1.42512,0.22349 -1.06927,0.50658 -1.88047,1.65821 -2.14764,3.04897 -0.22685,1.18082 -0.10977,2.71927 0.46432,6.10129 0.58111,3.42341 0.80914,5.56982 0.64467,6.06816 -0.0447,0.13543 -0.19366,0.35518 -0.33103,0.48833 -0.23392,0.22671 -0.27978,0.24208 -0.72254,0.24208 -0.86889,0 -2.00783,-0.59132 -4.21284,-2.18727 l -1.16813,-0.84547 v -20.64111 -20.64112 h 33.43927 c 20.05355,0 33.43926,0.0257 33.43926,0.0643 0,0.0883 0.51951,0.99927 0.89914,1.57656 0.62554,0.95125 1.66332,1.89516 2.61147,2.37525 0.59351,0.30053 1.39487,0.12112 2.54225,-0.56915 0.86065,-0.51777 1.83772,-1.62104 2.53349,-2.86071 l 0.32903,-0.58625 30.34104,7.2e-4 30.34104,7.2e-4 0.11723,0.27914 c 0.2512,0.5982 0.82439,1.46107 1.32632,1.99662 1.07339,1.14531 2.23045,1.69905 3.75219,1.79571 2.28375,0.14506 4.90419,-1.06675 7.42141,-3.43198 l 0.68212,-0.64093 H 400.91164 443.75 v 9.42004 9.42005 l -1.85795,2.88575 c -3.01749,4.68673 -4.83131,7.44075 -9.69129,14.71484 -10.45572,15.64941 -16.64332,25.22983 -22.41801,34.71045 -4.6101,7.56863 -8.8507,14.42001 -12.32635,19.91525 -5.2135,8.24291 -7.00583,11.13419 -10.13476,16.34887 -3.13043,5.21719 -5.28929,8.96302 -7.59086,13.17091 -0.57361,1.04873 -1.08689,1.97828 -1.1406,2.06568 l -0.0977,0.15889 -46.37903,-0.004 -46.37902,-0.004 0.74153,-0.27111 c 3.7834,-1.38323 7.05838,-3.57648 11.41377,-7.64377 3.26944,-3.05316 5.04442,-5.42715 5.71975,-7.65001 0.17449,-0.57435 0.19356,-0.74448 0.19791,-1.76554 0.004,-0.97599 -0.0172,-1.20622 -0.15664,-1.68976 -0.4158,-1.44179 -1.1733,-2.3534 -2.25964,-2.71936 -0.79372,-0.26739 -1.47766,-0.16236 -2.66233,0.4088 -1.79519,0.86552 -4.03908,2.63773 -7.52118,5.94018 -3.53728,3.35476 -5.78861,5.04956 -8.53916,6.42822 -2.9436,1.47543 -5.86238,2.20477 -9.91253,2.47695 -1.87624,0.12608 -6.37339,0.0475 -7.89012,-0.13786 -3.53247,-0.4317 -6.19304,-1.26607 -9.81638,-3.07845 -1.596,-0.7983 -2.21545,-1.13967 -5.5791,-3.0745 -4.22665,-2.43124 -5.81678,-3.252 -7.57937,-3.91217 -1.12354,-0.42081 -1.80441,-0.5597 -2.76668,-0.56434 -1.18258,-0.006 -1.76296,0.11795 -2.09249,0.4458 -0.29137,0.28989 -0.37286,0.58217 -0.4841,1.73638 -0.176,1.82604 -0.0224,2.64864 0.65933,3.53107 2.45263,3.17467 8.67665,7.62753 15.11749,10.81552 l 1.47706,0.73115 H 231.0498 208.29802 Z m 130.73178,-5.86742 c 1.41142,-0.27106 2.6851,-0.93933 4.02198,-2.11024 1.37835,-1.20723 2.28993,-2.71214 2.77339,-4.57856 0.43259,-1.67007 0.61307,-4.17043 0.48278,-6.68866 -0.14455,-2.79371 -0.5065,-4.25756 -1.6007,-6.47359 -1.24189,-2.51516 -2.4555,-3.93991 -3.86631,-4.53895 -0.40824,-0.17334 -0.52512,-0.18929 -1.39885,-0.19092 -0.81052,-10e-4 -1.02747,0.0227 -1.44774,0.16181 -1.70962,0.56572 -3.86113,2.07754 -6.04668,4.24889 -2.61892,2.6019 -3.70106,4.8351 -3.38624,6.98812 0.29982,2.05049 1.76233,6.41503 2.94057,8.77546 1.04955,2.10262 2.50608,3.50627 4.3384,4.18088 0.86848,0.31975 2.20671,0.41448 3.1894,0.22576 z m -66.325,-7.87798 c 8.02129,-0.77592 11.3209,-1.59138 13.15585,-3.2513 0.87903,-0.79517 1.26376,-1.66791 1.26087,-2.86019 -0.004,-1.69928 -0.69774,-2.99568 -1.82918,-3.41881 -0.79215,-0.29624 -1.41407,-0.35928 -4.21889,-0.4276 -3.3801,-0.0823 -4.7435,-0.23183 -5.6137,-0.61554 -0.63544,-0.28021 -0.83644,-0.53877 -0.99594,-1.28118 -0.039,-0.18167 -0.0992,-1.87163 -0.1336,-3.75546 -0.0713,-3.8974 -0.12605,-4.44114 -0.5309,-5.26974 -0.31124,-0.63701 -1.01273,-1.3207 -1.70416,-1.66092 -0.44555,-0.21923 -0.53398,-0.23737 -1.15464,-0.2369 -0.61134,7.1e-4 -0.71619,0.0213 -1.15897,0.23055 -2.05406,0.97057 -2.98056,2.59053 -3.50681,6.13151 -0.53579,3.60514 -0.67619,11.96954 -0.24001,14.29896 0.25338,1.35319 0.82705,2.01296 1.96273,2.25729 0.45748,0.0984 3.03066,0.0215 4.70735,-0.14067 z m 45.62147,-19.66419 c 2.9979,-0.36338 5.10293,-1.01715 8.29802,-2.57714 4.84746,-2.36675 8.95372,-5.38752 12.25975,-9.01885 2.23898,-2.4593 3.11018,-4.1489 3.21879,-6.24255 0.0511,-0.98564 -0.0487,-1.65311 -0.33932,-2.26753 -0.23852,-0.50436 -0.8033,-1.22494 -1.35083,-1.72349 -2.23145,-2.03185 -3.43693,-3.55489 -3.34793,-4.22989 0.0804,-0.6095 0.83481,-1.85237 2.01904,-3.32614 0.38173,-0.47505 0.82351,-1.08243 0.98175,-1.34972 1.11042,-1.8758 1.20858,-3.62556 0.26812,-4.77926 -0.91943,-1.12788 -2.62703,-1.58586 -4.30098,-1.15353 -1.57514,0.40681 -3.27028,1.46079 -5.23459,3.25468 -1.41789,1.29488 -2.70093,2.34671 -2.77375,2.27389 -0.0457,-0.0457 0.29594,-1.54565 1.07233,-4.70749 1.56815,-6.38618 2.00059,-8.98254 1.9213,-11.53553 -0.0472,-1.51844 -0.20552,-2.13661 -0.68818,-2.68633 -1.17778,-1.34141 -3.75361,-0.39339 -7.38419,2.71771 -1.16771,1.00063 -3.29616,3.15867 -4.9035,4.97167 -1.62411,1.83191 -3.42653,3.79973 -3.90867,4.26735 -0.29734,0.28838 -0.33642,0.30608 -0.5056,0.229 -0.4638,-0.21132 -1.78901,-1.27273 -3.63489,-2.91134 -3.43507,-3.04932 -5.34059,-4.17581 -6.89492,-4.07606 -0.70488,0.0452 -1.1726,0.28542 -1.72077,0.88365 -0.83102,0.90692 -1.16101,1.91287 -0.99779,3.04175 0.18762,1.29764 0.64655,2.41959 2.51868,6.15746 0.71008,1.41772 1.42554,2.89397 1.58992,3.28054 l 0.29886,0.70286 -0.4345,0.4084 c -0.52464,0.49313 -2.66152,2.09128 -4.81801,3.60335 -4.52851,3.17526 -8.42807,6.74736 -10.12175,9.2718 -0.68655,1.0233 -0.88415,1.60219 -0.88693,2.59831 -0.009,3.1453 3.02181,7.47936 7.09574,10.14777 0.91721,0.60077 2.91917,1.59593 4.30791,2.14144 3.8358,1.50672 8.07916,2.45078 12.39407,2.75743 1.00106,0.0711 5.08902,-0.0134 6.00282,-0.12421 z"
     id="path415"
     transform="scale(0.75)" />
  <path
     style="fill:#ffffff;stroke-width:0.0706215"
     d=""
     id="path417"
     transform="scale(0.75)" />
</svg>
