<?xml version="1.0" encoding="UTF-8" standalone="no"?>
<svg
   version="1"
   width="400pt"
   height="400pt"
   viewBox="0 0 400 400"
   preserveAspectRatio="xMidYMid meet"
   id="svg408"
   sodipodi:docname="rook.svg"
   inkscape:version="1.2.2 (732a01da63, 2022-12-09)"
   xmlns:inkscape="http://www.inkscape.org/namespaces/inkscape"
   xmlns:sodipodi="http://sodipodi.sourceforge.net/DTD/sodipodi-0.dtd"
   xmlns="http://www.w3.org/2000/svg"
   xmlns:svg="http://www.w3.org/2000/svg">
  <defs
     id="defs412" />
  <sodipodi:namedview
     id="namedview410"
     pagecolor="#505050"
     bordercolor="#ffffff"
     borderopacity="1"
     inkscape:showpageshadow="0"
     inkscape:pageopacity="0"
     inkscape:pagecheckerboard="1"
     inkscape:deskcolor="#505050"
     inkscape:document-units="pt"
     showgrid="false"
     inkscape:zoom="1.77"
     inkscape:cx="336.15819"
     inkscape:cy="255.64972"
     inkscape:window-width="2160"
     inkscape:window-height="1346"
     inkscape:window-x="-11"
     inkscape:window-y="-11"
     inkscape:window-maximized="1"
     inkscape:current-layer="svg408" />
  <g
     transform="matrix(0.11359209,0,0,-0.11359209,-33.146264,407.92563)"
     fill="#000000"
     stroke="none"
     id="g406">
    <path
       d="m 2868,3409 c -137,-20 -200,-88 -235,-253 -14,-69 -27,-96 -44,-96 -26,0 -94,82 -135,160 -39,77 -50,90 -94,114 -70,38 -132,43 -217,18 -38,-12 -85,-32 -104,-45 -43,-29 -93,-112 -121,-202 -12,-38 -26,-76 -31,-82 -16,-21 -61,-15 -109,16 -39,25 -53,44 -94,126 -27,54 -61,107 -75,117 -32,24 -114,26 -157,4 -41,-21 -86,-78 -108,-135 -49,-132 -97,-132 -156,0 -29,64 -56,81 -160,99 -46,8 -72,9 -86,1 -13,-7 -22,-7 -30,1 -6,6 -18,8 -28,4 -15,-6 -16,-20 -11,-149 7,-164 14,-196 64,-269 57,-85 84,-109 163,-146 58,-27 92,-36 148,-40 69,-4 73,-6 68,-26 -54,-193 -69,-396 -82,-1146 -6,-332 -5,-382 10,-432 9,-32 16,-92 16,-140 v -84 l -63,-13 c -34,-7 -82,-25 -106,-39 -43,-27 -44,-30 -67,-122 -25,-104 -31,-214 -12,-255 14,-32 105,-90 175,-112 46,-14 78,-15 315,-5 196,9 298,18 400,36 131,24 178,29 498,56 74,6 176,18 225,25 50,8 167,19 260,25 180,12 355,42 393,66 14,9 22,24 22,44 0,53 -30,172 -50,200 -26,36 -140,91 -202,98 l -48,5 v 53 c 0,36 15,100 45,196 58,179 63,236 54,593 -7,293 -24,450 -74,680 -35,164 -89,361 -103,378 -11,13 -1,20 70,47 115,45 152,64 181,99 46,56 59,108 55,227 -3,96 -6,116 -32,168 -16,32 -48,78 -71,102 l -42,44 -79,-1 c -43,-1 -105,-5 -136,-10 z m 230,-74 c 58,-71 77,-122 80,-222 6,-141 -31,-224 -110,-248 -13,-4 -66,-26 -118,-48 -83,-36 -108,-42 -200,-48 -156,-10 -323,-28 -430,-46 -114,-19 -690,-35 -795,-22 -38,5 -131,9 -206,9 h -136 l -74,38 c -74,37 -103,66 -148,152 -22,42 -41,145 -41,223 0,46 3,57 16,57 9,0 22,7 28,15 9,13 20,14 71,4 73,-13 84,-23 124,-103 34,-70 69,-99 114,-98 42,1 74,36 117,129 44,94 78,123 147,123 49,0 63,-16 107,-122 43,-103 125,-168 214,-168 52,0 74,26 107,125 48,146 94,194 205,219 65,15 77,15 124,2 61,-18 84,-41 119,-118 14,-32 47,-80 72,-107 106,-114 171,-85 205,90 13,67 51,129 94,155 42,25 126,42 213,43 70,1 72,0 101,-34 z m -214,-643 c 7,-15 21,-61 30,-102 9,-41 26,-102 36,-135 19,-57 56,-289 83,-510 7,-55 12,-219 11,-365 0,-286 -4,-313 -70,-530 -17,-56 -25,-109 -26,-155 0,-69 0,-70 -31,-85 -18,-8 -33,-24 -35,-35 -2,-16 -24,-28 -100,-54 -98,-35 -144,-42 -387,-61 -71,-6 -182,-19 -245,-30 -203,-34 -191,-34 -410,10 -112,23 -231,52 -265,65 -76,28 -140,68 -155,94 -5,11 -10,59 -10,106 0,48 -7,115 -16,148 -17,68 -17,236 5,847 17,500 17,501 46,628 l 28,120 371,-5 c 316,-5 384,-3 461,11 50,9 128,21 175,26 47,5 132,14 190,21 130,15 282,26 293,21 4,-2 13,-15 21,-30 z M 3150,739 c 61,-32 71,-47 90,-129 18,-84 19,-83 -72,-104 -46,-10 -168,-24 -273,-32 -104,-7 -239,-20 -300,-28 -60,-8 -202,-22 -315,-31 -113,-9 -293,-30 -400,-46 -156,-24 -242,-31 -430,-36 l -235,-6 -60,27 c -85,38 -105,60 -105,114 0,25 10,91 21,147 l 22,103 41,20 c 60,30 129,38 145,18 37,-44 201,-122 309,-147 144,-32 316,-59 384,-59 42,0 142,11 222,25 80,14 165,25 188,25 63,-1 286,29 338,45 147,44 246,85 265,110 18,24 25,26 63,21 24,-3 70,-20 102,-37 z"
       id="path398" />
    <path
       d="m 1677,2154 c -16,-16 -7,-44 14,-44 15,0 20,5 17,22 -3,22 -19,33 -31,22 z"
       id="path400" />
    <path
       d="m 2444,2055 c -4,-9 -2,-21 4,-27 15,-15 44,-1 40,19 -4,23 -36,29 -44,8 z"
       id="path402" />
    <path
       d="m 1849,1569 c -12,-7 -10,-15 9,-46 12,-21 47,-87 77,-148 75,-152 122,-225 146,-225 52,0 147,90 237,225 25,38 57,82 70,97 27,29 24,58 -6,58 -24,0 -57,-36 -120,-131 -56,-84 -148,-189 -166,-189 -13,0 -66,89 -121,200 -45,92 -86,158 -101,164 -6,2 -17,0 -25,-5 z"
       id="path404" />
  </g>
  <path
     style="fill:#ffffff;stroke-width:0.564972"
     d="m 243.50282,451.33495 c -0.9322,-0.13959 -9.8305,-1.88802 -19.77401,-3.88539 -24.04728,-4.83044 -41.05823,-9.13785 -48.3943,-12.25415 -11.12465,-4.72564 -18.56251,-9.97953 -19.67842,-13.90028 -0.32656,-1.14735 -0.83354,-7.29795 -1.12662,-13.66801 -0.55225,-12.00298 -1.22324,-18.2091 -2.59604,-24.0113 -2.04735,-8.65319 -2.12548,-39.42271 -0.2403,-94.63277 3.40952,-99.85267 3.72936,-106.18147 5.95343,-117.80563 1.47869,-7.72844 6.03535,-27.10273 6.48985,-27.59398 0.24893,-0.26906 22.63417,-0.1839 50.35925,0.19156 55.4331,0.75071 62.36811,0.55761 79.28965,-2.20768 14.54441,-2.37683 16.42359,-2.6227 38.98305,-5.10057 28.58382,-3.13957 37.70247,-3.97292 47.80371,-4.36876 l 8.82066,-0.34567 1.50869,2.20294 c 1.62329,2.37027 4.11834,9.84051 6.01935,18.02214 0.64981,2.79661 2.28804,9.02542 3.64054,13.84181 3.9678,14.12981 5.77541,23.31241 9.56451,48.58757 4.38362,29.24089 5.35726,38.81411 6.04094,59.39678 0.70512,21.22835 0.34166,61.06224 -0.64112,70.26424 -0.89955,8.42271 -3.00857,18.19392 -6.55287,30.35986 -5.803,19.91901 -6.98795,26.08892 -7.0037,36.46747 -0.005,3.22015 -0.2968,6.05792 -0.70621,6.86528 -0.38384,0.75693 -2.18732,2.24622 -4.00772,3.30953 -1.86348,1.08846 -3.71513,2.67843 -4.23729,3.63847 -2.54151,4.67271 -4.96904,6.05558 -18.62018,10.60718 -12.23716,4.08015 -19.37424,5.23828 -46.99654,7.62609 -22.12593,1.91268 -33.27781,3.24942 -50.10953,6.00647 -11.33807,1.85718 -15.74123,2.32857 -23.05431,2.46812 -4.97175,0.0949 -9.80226,0.0583 -10.73447,-0.0813 z m 32.76837,-82.88948 c 8.02781,-3.74414 19.47699,-15.84266 30.79476,-32.54126 2.49532,-3.68168 6.43794,-9.19061 8.76137,-12.24205 4.63158,-6.08284 5.57562,-8.58537 3.92624,-10.40792 -1.32416,-1.46318 -4.39738,-1.43709 -6.81629,0.0579 -2.35669,1.45652 -6.96882,7.16388 -14.00177,17.32673 -9.65931,13.95802 -23.04583,29.53065 -25.3851,29.53065 -1.96921,0 -6.60347,-7.53589 -17.89285,-29.09604 -8.88679,-16.97178 -10.38827,-19.58378 -13.39662,-23.30509 -1.60198,-1.98164 -2.27995,-2.40113 -3.88068,-2.40113 -1.18932,0 -2.37871,0.43914 -3.07487,1.1353 -1.07331,1.07331 -1.08715,1.25064 -0.25348,3.24858 0.485,1.16231 1.29775,2.74889 1.80611,3.52573 0.50836,0.77683 5.2152,9.80071 10.45963,20.05306 11.05294,21.60739 15.45229,29.24216 19.26447,33.4322 2.35916,2.59297 3.02712,3.01114 4.80226,3.00639 1.13408,-0.003 3.33314,-0.59839 4.88682,-1.32302 z m 54.16615,-130.8478 c 3.14629,-1.19622 3.30098,-5.00009 0.26712,-6.56895 -1.37199,-0.70949 -2.06465,-0.77623 -3.1105,-0.29971 -2.62578,1.19639 -2.84882,5.33411 -0.3654,6.77883 1.27825,0.74362 1.47472,0.74911 3.20878,0.0898 z m -115.84111,-14.24 c 0.41143,-0.65736 0.3804,-1.62197 -0.10418,-3.23937 -1.14325,-3.81583 -4.36497,-4.49928 -5.72552,-1.21461 -1.22313,2.9529 0.62153,5.85482 3.53549,5.56185 0.93958,-0.0945 1.97197,-0.59301 2.29421,-1.10787 z"
     id="path454"
     transform="scale(0.75)" />
  <path
     style="fill:#ffffff;stroke-width:0.564972"
     d="m 186.15819,134.4718 c -4.81638,-0.42883 -18.41808,-0.9568 -30.22599,-1.17327 l -21.46892,-0.3936 -8.42861,-4.46864 c -10.03498,-5.32029 -13.10187,-7.48492 -16.65663,-11.7564 -3.55404,-4.27062 -7.77259,-11.6772 -9.435259,-16.56564 -3.688952,-10.845963 -5.890518,-33.895968 -3.525425,-36.910569 0.275352,-0.35097 1.200247,-0.778049 2.055322,-0.949064 0.855075,-0.171015 2.561882,-1.111359 3.792912,-2.089654 2.00861,-1.596248 2.49985,-1.741086 4.78857,-1.411886 10.77525,1.549864 16.06946,3.590616 18.68623,7.202963 0.90574,1.250347 3.16974,5.133319 5.0311,8.628825 4.16905,7.829202 7.09617,11.60111 10.60209,13.661946 2.2739,1.33663 3.32529,1.583697 6.7394,1.583697 3.59301,0 4.31846,-0.191892 6.48992,-1.716687 3.59836,-2.526746 6.16417,-6.241832 11.49577,-16.644894 6.03153,-11.768791 8.60736,-15.116948 13.47248,-17.512037 3.12487,-1.538371 4.28932,-1.801909 8.14586,-1.843567 7.53423,-0.08139 9.43445,1.712717 15.10256,14.259148 5.07997,11.244585 6.62347,13.688697 12.15218,19.242835 7.01266,7.044909 13.81806,10.163671 22.11545,10.134999 8.25552,-0.02853 10.81153,-3.021119 16.87865,-19.761604 5.52387,-15.24154 9.54516,-21.781616 16.18095,-26.316133 4.27056,-2.918256 8.21749,-4.440639 16.29388,-6.284763 7.54543,-1.722887 12.13585,-1.547521 18.3343,0.700417 7.94307,2.880644 10.15327,5.168868 15.93982,16.502472 4.29676,8.415702 8.55778,14.337199 14.18645,19.714805 4.76363,4.551134 10.03436,7.546382 13.28074,7.547163 6.27163,0.0015 10.90772,-6.227432 13.98205,-18.785917 3.46581,-14.157652 5.91963,-19.603374 11.28229,-25.038584 4.07592,-4.131069 8.87689,-6.334733 17.73289,-8.13947 6.59623,-1.344226 20.77556,-2.319927 25.5434,-1.75768 4.19267,0.494421 5.36546,1.359472 9.8023,7.230192 6.48581,8.581891 8.83118,14.68027 9.99022,25.976391 2.06944,20.168983 -2.7863,35.848826 -12.61943,40.749876 -3.17299,1.58149 -29.28733,12.13154 -32.93526,13.30567 -4.7647,1.53357 -8.46846,2.03215 -23.72047,3.19314 -18.54713,1.41181 -34.45227,3.03279 -47.46597,4.83752 -16.50199,2.28848 -22.5747,2.938 -33.61582,3.59539 -32.88266,1.95787 -85.70679,2.72519 -100,1.45261 z"
     id="path456"
     transform="scale(0.75)" />
  <path
     style="fill:#ffffff;stroke-width:0.564972"
     d="m 131.9209,490.52563 c -11.73686,-5.46515 -14.98469,-8.12125 -16.39138,-13.40501 -1.01482,-3.81184 0.56284,-16.06266 4.40206,-34.18277 l 1.55615,-7.34463 4.79286,-2.40935 c 6.75372,-3.39507 11.83918,-4.86198 16.99412,-4.90198 4.19949,-0.0326 4.34314,0.0131 6.68858,2.12918 6.36637,5.74373 21.21718,13.36811 35.8997,18.43086 8.68083,2.99328 24.09326,6.27149 43.79803,9.31581 23.16645,3.57913 30.1959,3.42057 60.16949,-1.35726 13.57571,-2.16398 22.93473,-3.28783 30.79096,-3.69744 15.98179,-0.83327 41.55021,-4.82818 52.30163,-8.1718 19.30036,-6.0023 31.13858,-11.22929 35.64622,-15.73907 2.52409,-2.52529 3.21979,-2.92098 5.13561,-2.92098 6.49286,0 21.76536,6.34451 26.37938,10.95853 2.67625,2.67625 4.24279,6.24906 5.94942,13.56893 1.76945,7.58922 1.98073,10.28041 0.93272,11.87989 -2.29759,3.50655 -20.61378,6.59344 -55.44103,9.34367 -17.04443,1.34596 -35.07713,3.07044 -44.35028,4.24126 -7.57677,0.95663 -30.65873,3.2275 -46.0452,4.53006 -14.56576,1.23308 -38.658,3.93194 -53.38983,5.98085 -24.76645,3.44452 -28.24253,3.87628 -37.88553,4.70572 -9.69414,0.83383 -30.89524,1.68508 -57.02972,2.2898 l -13.27684,0.30721 z"
     id="path458"
     transform="scale(0.75)" />
</svg>
